<svg viewBox="0 0 642 329" fill="none"  xmlns="http://www.w3.org/2000/svg">
<path d="M281.971 99.7287V127.489C281.971 154.208 299.668 180.58 335.062 201.053C405.503 241.652 519.318 241.652 589.065 201.053C624.112 180.58 641.462 154.208 641.115 127.489V99.7287H281.971Z" fill="#71221E"/>
<path d="M588.022 31.0228C658.116 71.6217 658.81 137.205 589.063 178.151C519.316 218.75 405.153 218.75 335.059 178.151C264.965 137.552 264.271 71.6217 334.365 31.0228C404.459 -9.92318 517.928 -9.57618 588.022 31.0228Z" fill="#984630"/>
<path opacity="0.3" d="M566.858 43.1679C608.845 46.6379 485.313 10.2029 467.616 11.5909C428.405 26.1649 381.908 12.979 346.514 41.4329C304.874 67.1109 276.073 105.628 307.997 143.104C316.325 148.656 312.508 174.681 342.003 155.249C420.424 110.139 496.417 77.8679 566.858 43.1679Z" fill="#D37566"/>
<path opacity="0.3" d="M609.887 82.3786C581.086 90.0126 566.859 71.6216 570.676 66.7636C574.493 61.9056 469.005 88.9716 517.932 114.997C531.465 122.284 472.822 109.098 453.737 118.467C434.652 127.836 362.476 167.74 372.539 177.109C410.709 204.522 573.799 178.844 608.499 135.817C625.502 119.855 639.035 74.7446 609.887 82.3786Z" fill="#D37566"/>
<path d="M306.605 319.032H16.1659C13.7369 319.032 12.002 317.297 12.002 314.868C12.002 312.439 13.7369 310.704 16.1659 310.704H302.441V238.182C302.441 236.794 303.135 235.406 304.176 234.712L446.792 133.388C448.874 132 451.303 132.347 452.691 134.429C454.079 136.511 453.732 138.94 451.65 140.328L310.769 240.263V314.868C310.769 317.297 309.034 319.032 306.605 319.032Z" fill="#9494E0"/>
<path d="M0.900391 314.869C0.900391 307.235 7.14638 300.989 14.7804 300.989C22.4144 300.989 28.6604 307.235 28.6604 314.869C28.6604 322.503 22.4144 328.748 14.7804 328.748C7.14638 328.748 0.900391 322.503 0.900391 314.869Z" fill="#9494E0"/>
</svg>
