<svg viewBox="0 0 491 265" fill="none" xmlns="http://www.w3.org/2000/svg">
<path d="M159.101 92.5V118C159.201 142.6 175.501 167.2 208.001 185.9C272.901 223.4 378.101 223.4 442.601 185.9C474.901 167.1 490.901 142.6 490.801 118V92.4H159.101V92.5Z" fill="#71221E"/>
<path d="M441.7 29.1C506.6 66.5 507.2 127.3 442.5 164.9C378 202.4 272.8 202.4 207.9 164.9C143 127.4 142.7 66.6 207.2 29.1C271.9 -8.59999 376.8 -8.39999 441.7 29.1Z" fill="#984630"/>
<path opacity="0.3" d="M421.9 40.4C460.8 43.6 346.5 9.8 330.1 11.2C294 24.7 250.9 12.6 218.4 38.8C180.1 62.5 153.4 98 182.9 132.8C190.7 137.8 187.2 162 214.3 143.9C286.9 102 357 72.3 421.9 40.4Z" fill="#D37566"/>
<path opacity="0.3" d="M461.9 76.5C435.1 83.5 422 66.6 425.7 62C429.4 57.4 331.7 82.6 377 106.5C389.6 113.2 335.2 101.1 317.7 109.8C300.1 118.5 233.3 155.4 242.6 163.9C277.9 189.2 428.5 165.5 460.5 125.9C476.3 111.2 488.6 69.5 461.9 76.5Z" fill="#D37566"/>
<path d="M0.900391 256.1C0.900391 251.6 4.5004 248 9.0004 248C13.5004 248 17.1004 251.6 17.1004 256.1C17.1004 260.6 13.5004 264.2 9.0004 264.2C4.5004 264.2 0.900391 260.6 0.900391 256.1Z" fill="#9494E0"/>
<path d="M180.3 258.6H9.7002C8.3002 258.6 7.2002 257.5 7.2002 256.1C7.2002 254.7 8.3002 253.6 9.7002 253.6H177.8V211C177.8 210.2 178.2 209.4 178.9 209L262.6 149.6C263.7 148.8 265.3 149.1 266.1 150.2C266.9 151.3 266.6 152.9 265.5 153.7L182.8 212.4V256.2C182.8 257.5 181.6 258.6 180.3 258.6Z" fill="#9494E0"/>
</svg>
