<svg viewBox="0 0 367 293" fill="none" xmlns="http://www.w3.org/2000/svg">
<path d="M311.001 236.8C238.601 277.4 122.901 276.2 52.5008 234.2C17.9008 213.5 0.700828 186.8 0.800828 160.1C0.700828 168.8 1.2008 173.2 1.9008 178.7C2.5008 183.5 3.60083 187.9 4.80083 192.5C4.90083 193 8.0008 205 15.4008 217.3C23.3008 230.5 31.4007 238.3 35.7007 242.5C45.4007 251.9 56.4008 258.7 61.6008 261.9C67.7008 265.7 78.8008 271.2 83.9008 273.2C97.8008 278.8 103.001 280.7 118.801 284.8C127.401 287 150.701 292.2 181.201 292.5C202.501 292.7 225.401 290.4 244.001 286C247.701 285.1 252.701 284 256.401 282.9C263.401 280.7 272.701 277.6 279.501 275.1C283.101 273.7 287.801 271.6 291.301 269.9C294.501 268.4 298.701 266.1 301.901 264.4C306.601 261.6 312.901 257.9 317.301 254.6C322.401 250.9 328.801 245.4 333.401 241.1C335.701 239 338.601 236 340.501 233.5C343.801 229.3 348.201 223.7 351.001 219.2C358.301 207.6 366.901 188 366.501 161C366.301 188.7 347.801 216.2 311.001 236.8Z" fill="#E67F34"/>
<path d="M311 236.8C238.6 277.4 122.9 276.2 52.5004 234.2C-17.8996 192.1 -16.1996 125.1 56.2004 84.5C128.6 43.9 244.3 45.1 314.7 87.1C385 129.2 383.4 196.2 311 236.8Z" fill="#FFC952"/>
<path d="M268.801 8.90009C268.801 4.40009 272.401 0.800049 276.901 0.800049C281.401 0.800049 285.001 4.40009 285.001 8.90009C285.001 13.4001 281.401 17.0001 276.901 17.0001C272.401 17.0001 268.801 13.4001 268.801 8.90009Z" fill="#9494E0"/>
<path className="Arrow" d="M159.9 80.8C159.2 80.8 158.5 80.5001 158 79.9001L98.1998 10.5001C97.5998 9.80006 97.3999 8.70005 97.7999 7.80005C98.1999 6.90005 99.0999 6.30005 100.1 6.30005H268.7C270.1 6.30005 271.2 7.40005 271.2 8.80005C271.2 10.2 270.1 11.3 268.7 11.3H105.5L161.7 76.6C162.6 77.6 162.5 79.2 161.4 80.1C161.1 80.6 160.5 80.8 159.9 80.8Z" fill="#9494E0"/>
</svg>
