<svg viewBox="0 0 645 285" fill="none" xmlns="http://www.w3.org/2000/svg">
<path d="M305.634 179.788C234.499 219.693 121.03 218.652 51.6301 177.359C17.6241 156.886 0.621096 130.861 0.968096 104.489C0.968096 113.164 1.31511 117.328 2.00911 122.88C2.7031 127.391 3.74411 131.902 4.78511 136.413C4.78511 136.76 7.90811 148.558 15.1951 160.703C22.8291 173.542 30.8101 181.176 34.9741 185.34C44.6901 194.709 55.1001 201.302 60.305 204.425C66.204 208.242 77.308 213.447 82.166 215.529C95.699 221.081 100.904 222.816 116.519 226.98C124.847 229.062 147.749 234.267 177.938 234.614C198.758 234.961 221.313 232.532 239.704 228.368C243.521 227.674 248.379 226.286 251.849 225.245C258.789 223.163 267.811 220.04 274.751 217.611C278.221 216.223 282.732 214.141 286.202 212.406C289.325 211.018 293.489 208.589 296.612 207.201C301.123 204.425 307.369 200.608 311.88 197.485C316.738 193.668 322.984 188.463 327.842 184.299C329.924 182.217 333.047 179.094 334.782 177.012C337.905 172.848 342.416 167.296 345.192 162.785C352.479 151.334 360.807 132.249 360.46 105.53C360.113 132.596 342.069 159.662 305.634 179.788Z" fill="#E67F34"/>
<path d="M305.634 179.788C234.499 219.693 121.03 218.651 51.6305 177.359C-17.4224 136.066 -16.0344 70.1355 55.1005 30.2306C126.235 -9.67436 239.704 -8.63332 309.104 32.6596C378.504 73.9526 376.769 139.883 305.634 179.788Z" fill="#FFC952"/>
<path d="M617.238 271.049C617.238 278.683 623.484 284.929 631.118 284.929C638.752 284.929 644.998 278.683 644.998 271.049C644.998 263.415 638.752 257.169 631.118 257.169C623.137 257.169 617.238 263.415 617.238 271.049Z" fill="#9494E0"/>
<path d="M630.773 275.213H309.798C308.757 275.213 307.716 274.865 306.675 273.824L220.272 187.421C218.537 185.686 218.537 182.911 220.272 181.523C222.007 179.788 224.783 179.788 226.171 181.523L311.186 266.538H630.426C632.855 266.538 634.589 268.272 634.589 270.701C634.589 273.13 633.202 275.213 630.773 275.213Z" fill="#9494E0"/>
</svg>
