<svg viewBox="0 0 697 276" fill="none" xmlns="http://www.w3.org/2000/svg">
<path d="M259.431 43.2381V60.241C259.431 55.73 256.308 50.8721 250.062 47.0551C237.57 39.7681 217.097 39.7681 204.952 47.0551C198.706 50.5251 195.93 55.383 195.93 59.894V42.891C195.93 38.3801 199.053 33.522 204.952 30.052C217.444 22.765 237.57 23.112 250.062 30.399C256.308 33.869 259.431 38.3801 259.431 43.2381Z" fill="#EFA10B"/>
<path d="M320.158 79.3257V62.3228C320.158 60.2408 321.546 58.5058 324.322 56.7708V73.7737C321.546 75.5087 320.158 77.2438 320.158 79.3257Z" fill="#EFA10B"/>
<path d="M104.668 83.49V100.493C104.668 96.676 102.239 93.206 97.3809 90.43V73.4269C102.586 75.8559 105.015 79.673 104.668 83.49Z" fill="#EFA10B"/>
<path d="M191.422 120.966V103.963C191.422 101.881 192.81 99.7986 195.586 98.4106C200.791 95.2876 209.466 95.2876 214.671 98.4106V115.414C209.466 112.291 200.791 112.291 195.586 115.414C192.81 116.802 191.422 118.884 191.422 120.966Z" fill="#EFA10B"/>
<path d="M218.832 103.963V120.966C218.832 118.884 217.444 116.802 214.668 115.067V98.0643C217.444 99.7993 218.832 101.881 218.832 103.963Z" fill="#EFA10B"/>
<path d="M317.033 142.48V125.477C317.033 122.007 319.462 118.19 324.32 115.414C333.689 109.862 349.304 109.862 359.02 115.414V132.417C349.304 126.865 333.689 126.865 324.32 132.07C319.462 135.193 317.033 139.01 317.033 142.48Z" fill="#EFA10B"/>
<path d="M366.307 125.824V142.827C366.307 139.01 363.878 135.54 359.02 132.764V115.761C363.878 118.537 366.307 122.354 366.307 125.824Z" fill="#EFA10B"/>
<path d="M174.416 132.07V149.073C174.416 145.603 171.987 141.786 167.129 139.01C157.76 133.458 141.798 133.458 132.082 139.01C127.224 141.786 124.795 145.256 124.795 149.073V132.07C124.795 128.6 127.224 124.783 132.082 122.007C141.451 116.455 157.413 116.455 167.129 122.007C171.987 124.783 174.416 128.253 174.416 132.07Z" fill="#EFA10B"/>
<path d="M24.8596 134.846V151.849C24.8596 149.767 23.4716 147.685 20.6956 146.297C15.4907 143.174 6.81567 143.174 1.26367 146.644V129.641C6.81567 126.518 15.1437 126.518 20.6956 129.294C23.1246 130.682 24.8596 132.764 24.8596 134.846Z" fill="#EFA10B"/>
<path d="M269.495 153.237V170.24C269.495 168.158 268.107 166.076 265.331 164.341C260.126 161.218 251.451 161.218 246.246 164.341V147.338C251.451 144.215 260.126 144.215 265.331 147.338C268.107 149.073 269.495 151.155 269.495 153.237Z" fill="#EFA10B"/>
<path d="M242.084 169.893V152.89C242.084 150.808 243.472 148.726 246.248 147.338V164.341C243.472 166.076 242.084 167.811 242.084 169.893Z" fill="#EFA10B"/>
<path d="M449.239 128.947V145.95L359.02 198.347V181.691L449.239 128.947Z" fill="#EFA10B"/>
<path d="M335.773 204.245V187.243C335.773 185.161 337.161 183.078 339.937 181.69C345.142 178.568 353.817 178.568 359.022 181.69V198.693C353.817 195.57 345.142 195.57 339.937 198.693C337.161 200.081 335.773 202.163 335.773 204.245Z" fill="#EFA10B"/>
<path d="M130.697 199.041V215.697L127.574 218.82V202.164L130.697 199.041Z" fill="#EFA10B"/>
<path d="M127.571 202.164V218.82L20.6953 157.401V140.398L127.571 202.164Z" fill="#EFA10B"/>
<path d="M250.41 204.246V221.249C250.41 216.391 247.287 211.533 241.041 208.063C228.549 200.776 208.076 201.123 195.931 208.063C189.685 211.533 186.562 216.391 186.562 220.902V203.899C186.562 199.041 189.685 194.53 195.931 191.06C208.423 183.773 228.549 183.773 241.041 191.06C247.287 194.53 250.41 199.388 250.41 204.246Z" fill="#EFA10B"/>
<path d="M153.942 204.593V221.596C153.942 219.514 152.554 217.432 149.778 216.044C144.573 212.921 135.898 212.921 130.346 216.044V199.041C135.898 195.918 144.226 195.918 149.778 198.694C152.901 200.429 154.289 202.511 153.942 204.593Z" fill="#EFA10B"/>
<path d="M339.59 192.794V209.797L261.168 255.254V238.251L339.59 192.794Z" fill="#EFA10B"/>
<path d="M237.916 261.154V244.151C237.916 242.069 239.304 239.987 242.08 238.599C247.285 235.476 255.96 235.476 261.165 238.599V255.602C255.96 252.479 247.285 252.479 242.08 255.602C239.304 256.99 237.916 259.072 237.916 261.154Z" fill="#EFA10B"/>
<path d="M225.776 258.724V275.727L144.578 228.882V211.879L225.776 258.724Z" fill="#EFA10B"/>
<path d="M242.08 249.703L241.733 266.359L225.771 275.728V258.725L242.08 249.703Z" fill="#EFA10B"/>
<path d="M359.024 181.691C353.819 178.568 345.144 178.568 339.939 181.691C334.387 184.814 334.387 189.672 339.592 192.795L261.17 238.598C255.965 235.475 247.29 235.475 242.085 238.598C236.533 241.721 236.533 246.579 241.738 249.702L225.776 259.071L144.578 212.226L149.783 210.491C155.335 207.368 155.335 202.51 149.783 199.04C144.578 195.917 135.903 195.918 130.351 199.388L127.228 202.51L20.3519 140.745C25.9039 137.622 25.9039 132.764 20.3519 129.294C15.1469 126.171 6.47192 126.171 0.919922 129.641L62.6859 93.8996C72.4019 99.4516 88.0168 99.4516 97.7328 93.8996C107.102 88.3477 107.102 79.3256 97.7328 73.7736L224.735 0.209747L324.324 57.8116C318.772 60.9346 319.119 66.1397 324.324 69.2627C329.529 72.3856 338.204 72.3856 343.756 69.2627L449.243 129.988L359.024 181.691ZM195.587 217.085C208.426 224.372 228.552 224.372 240.697 217.085C253.189 209.798 253.189 198 240.697 190.713C228.205 183.426 207.732 183.773 195.587 190.713C183.095 198.347 183.442 209.798 195.587 217.085ZM205.303 56.0766C217.795 63.3636 237.921 63.3636 250.066 56.0766C262.558 48.7896 262.558 37.3386 250.066 30.0516C237.574 22.7646 217.101 22.7647 204.956 29.7047C192.464 36.9917 192.811 48.7896 205.303 56.0766ZM132.433 142.133C142.149 147.685 157.764 147.685 167.48 142.133C176.849 136.581 177.196 127.559 167.48 122.007C158.111 116.455 142.149 116.455 132.433 122.007C122.717 127.559 122.717 136.581 132.433 142.133ZM359.024 115.761C349.308 110.209 333.693 110.209 324.324 115.761C314.608 121.313 314.608 130.335 324.324 135.887C334.04 141.439 349.655 141.439 359.371 135.887C369.087 130.335 368.74 121.313 359.024 115.761ZM246.249 147.338C240.697 150.461 240.697 155.318 245.902 158.441C251.454 161.564 260.129 161.564 265.334 158.441C270.539 155.318 270.539 150.461 264.987 147.338C260.129 144.215 251.801 144.215 246.249 147.338ZM214.672 98.4106C209.467 95.2876 200.792 95.2876 195.587 98.4106C190.035 101.534 190.035 106.392 195.24 109.515C200.445 112.638 209.467 112.638 214.672 109.515C220.224 106.392 219.877 101.187 214.672 98.4106Z" fill="#FFDB4E"/>
<path d="M669.238 36.6447C669.238 29.0107 675.484 22.7647 683.118 22.7647C690.752 22.7647 696.998 29.0107 696.998 36.6447C696.998 44.2786 690.752 50.5246 683.118 50.5246C675.137 50.5246 669.238 44.2786 669.238 36.6447Z" fill="#9494E0"/>
<path d="M343.061 174.057C342.02 174.057 340.632 173.71 339.938 172.669C338.203 170.934 338.55 168.158 340.285 166.77L490.188 33.5217C490.882 32.8277 491.923 32.4808 492.964 32.4808H679.303C681.732 32.4808 683.467 34.2158 683.467 36.6448C683.467 39.0738 681.732 40.8088 679.303 40.8088H494.699L345.837 173.016C344.796 173.71 344.102 174.057 343.061 174.057Z" fill="#9494E0"/>
</svg>
