<svg viewBox="0 0 490 248" fill="none" xmlns="http://www.w3.org/2000/svg">
<path d="M224.7 46L224.6 60.7C224.6 56.6 221.9 52.5 216.5 49.4C205.7 43.1 187.9 43 177.2 49.3C171.9 52.3 169.3 56.4 169.3 60.4V45.7C169.3 41.7 171.9 37.7 177.2 34.6C188 28.3 205.6 28.5 216.5 34.8C222 37.8 224.7 41.9 224.7 46Z" fill="#EFA10B"/>
<path d="M277.6 77.5V62.8C277.6 61.1 278.7 59.4 281.1 58V72.7C278.8 73.9 277.6 75.7 277.6 77.5Z" fill="#EFA10B"/>
<path d="M90.4992 80.9V95.6C90.4992 92.4 88.3992 89.2 84.1992 86.8V72.1C88.4992 74.4 90.5992 77.6 90.4992 80.9Z" fill="#EFA10B"/>
<path d="M165.699 111.5V96.8C165.699 95 166.899 93.3 169.299 91.9C173.899 89.2 181.199 89.2 185.799 91.9V106.6C181.199 104 173.799 104 169.299 106.6C166.899 107.9 165.699 109.7 165.699 111.5Z" fill="#EFA10B"/>
<path d="M190 100.107V121C190 118.442 188.286 115.741 185 113.893V93C188.286 94.9898 190 97.5482 190 100.107Z" fill="#EFA10B"/>
<path d="M274.899 132.3V117.6C274.899 114.4 276.999 111.3 281.199 108.9C289.399 104.1 302.699 104.1 311.299 109V123.7C302.799 118.8 289.399 118.8 281.199 123.5C276.999 125.9 274.899 129.1 274.899 132.3Z" fill="#EFA10B"/>
<path d="M317.599 117.8V132.5C317.599 129.3 315.499 126 311.199 123.6V108.9C315.599 111.4 317.599 114.7 317.599 117.8Z" fill="#EFA10B"/>
<path d="M151.1 123.1V137.7C151.1 134.5 149 131.4 144.8 128.9C136.5 124.1 122.7 124.1 114.5 128.9C110.3 131.4 108.3 134.5 108.3 137.7V123C108.3 119.9 110.3 116.7 114.5 114.3C122.7 109.6 136.5 109.6 144.8 114.4C149 116.7 151.1 119.9 151.1 123.1Z" fill="#EFA10B"/>
<path d="M20.9996 125.5V140.2C20.9996 138.5 19.7996 136.7 17.2996 135.3C12.6996 132.6 5.39961 132.6 0.599609 135.5V120.8C5.39961 118 12.7996 118 17.2996 120.6C19.7996 121.9 20.9996 123.7 20.9996 125.5Z" fill="#EFA10B"/>
<path d="M233.599 141.5V156.2C233.599 154.4 232.399 152.7 229.899 151.2C225.299 148.6 217.899 148.6 213.399 151.2V136.5C217.999 133.8 225.299 133.8 229.899 136.5C232.399 137.9 233.699 139.7 233.599 141.5Z" fill="#EFA10B"/>
<path d="M209.8 156V141.3C209.8 139.6 211 137.8 213.4 136.4V151.1C211 152.6 209.8 154.3 209.8 156Z" fill="#EFA10B"/>
<path d="M389.6 120.5V135.2L311.1 180.8V166.1L389.6 120.5Z" fill="#EFA10B"/>
<path d="M291 185.7L291.1 171.1C291.1 169.4 292.3 167.6 294.7 166.2C299.3 163.5 306.6 163.5 311.2 166.2V180.9C306.6 178.3 299.3 178.3 294.7 180.9C292.1 182.2 291 183.9 291 185.7Z" fill="#EFA10B"/>
<path d="M112.899 181.3V195.9L110.199 198.6V183.9L112.899 181.3Z" fill="#EFA10B"/>
<path d="M110.199 183.9V198.6L17.3994 145.1V130.4L110.199 183.9Z" fill="#EFA10B"/>
<path d="M216.899 185.7V200.4C216.899 196.2 214.199 192.1 208.599 188.9C197.799 182.7 180.099 182.8 169.399 189C163.999 192.1 161.399 196.2 161.399 200.3V185.6C161.399 181.5 164.099 177.5 169.399 174.4C180.099 168.1 197.799 168 208.599 174.3C214.199 177.4 216.899 181.6 216.899 185.7Z" fill="#EFA10B"/>
<path d="M133.299 186.1V200.8C133.299 199 132.099 197.3 129.699 195.9C125.099 193.2 117.799 193.2 112.899 195.9V181.3C117.699 178.5 125.099 178.5 129.699 181.1C132.199 182.6 133.399 184.3 133.299 186.1Z" fill="#EFA10B"/>
<path d="M294.399 175.8V190.5L226.199 230.1L226.299 215.5L294.399 175.8Z" fill="#EFA10B"/>
<path d="M206.1 235.1L206.2 220.4C206.2 218.6 207.4 216.9 209.8 215.5C214.4 212.8 221.7 212.8 226.3 215.5L226.2 230.2C221.6 227.6 214.3 227.6 209.7 230.2C207.3 231.5 206.1 233.3 206.1 235.1Z" fill="#EFA10B"/>
<path d="M195.6 233.3V247.9L125.1 207.3L125.2 192.6L195.6 233.3Z" fill="#EFA10B"/>
<path d="M209.6 225.2L209.5 239.8L195.6 247.9V233.3L209.6 225.2Z" fill="#EFA10B"/>
<path d="M311.1 166.1C306.5 163.4 299.2 163.4 294.6 166.1C289.8 168.9 289.8 173.2 294.4 175.8L226.2 215.5C221.6 212.8 214.2 212.8 209.7 215.5C204.9 218.3 204.9 222.6 209.5 225.2L195.5 233.3L125.1 192.6L129.7 191C134.5 188.2 134.4 183.9 129.6 181.1C125 178.4 117.7 178.4 112.8 181.3L110.1 183.9L17.3 130.4C22.1 127.6 22.1 123.3 17.2 120.5C12.6 117.8 5.3 117.9 0.5 120.7L54 89.6C62.3 94.4 76.1 94.3 84.3 89.6C92.5 84.9 92.5 76.8 84.2 72L194.5 8L281 57.9C276.2 60.7 276.5 65.1 281.1 67.7C285.7 70.4 293 70.4 297.8 67.6L389.4 120.5L311.1 166.1ZM169.5 196.9C180.6 203.3 198 203.3 208.7 197C219.5 190.8 219.6 180.5 208.6 174.2C197.8 167.9 180.1 168.1 169.4 174.3C158.6 180.6 158.7 190.7 169.5 196.9ZM177.7 57.3C188.5 63.6 205.9 63.6 216.7 57.3C227.5 51 227.5 40.9 216.6 34.7C205.8 28.4 188.1 28.3 177.3 34.5C166.5 40.8 166.9 51 177.7 57.3ZM114.5 131.8C123 136.7 136.4 136.7 144.8 131.8C153 127 153.2 119.1 144.7 114.3C136.4 109.5 122.6 109.5 114.4 114.2C106 119.1 106.2 127.1 114.5 131.8ZM311.3 108.9C302.8 104 289.4 104 281.2 108.8C272.7 113.7 272.7 121.4 281.3 126.3C289.6 131.1 303.2 131.2 311.6 126.3C319.8 121.5 319.6 113.7 311.3 108.9ZM213.4 136.5C208.6 139.2 208.6 143.5 213.2 146.2C218 149 225.4 149 230.2 146.2C234.8 143.5 234.8 139.2 229.9 136.5C225.3 133.8 218 133.8 213.4 136.5ZM185.9 93.8C181.3 91.1 173.9 91.1 169.4 93.8C164.6 96.5 164.6 100.8 169.2 103.5C173.8 106.1 181.4 106.3 186.2 103.5C190.7 100.8 190.5 96.5 185.9 93.8Z" fill="#FFDB4E"/>
<path d="M472.9 8.20001C472.9 3.70001 476.5 0.0999756 481 0.0999756C485.5 0.0999756 489.1 3.70001 489.1 8.20001C489.1 12.7 485.5 16.3 481 16.3C476.6 16.3 472.9 12.7 472.9 8.20001Z" fill="#9494E0"/>
<path d="M281.401 88.9C280.701 88.9 280.001 88.6 279.501 88.1C278.601 87.1 278.701 85.5 279.701 84.6L367.701 6.40002C368.201 6.00002 368.701 5.79999 369.401 5.79999H478.701C480.101 5.79999 481.201 6.89999 481.201 8.29999C481.201 9.69999 480.101 10.8 478.701 10.8H370.301L283.001 88.4C282.601 88.7 282.001 88.9 281.401 88.9Z" fill="#9494E0"/>
</svg>
