<svg viewBox="0 0 679 369" fill="none" xmlns="http://www.w3.org/2000/svg">
<path d="M463.447 16.9011C469.346 22.4531 472.816 28.699 472.816 35.639V60.9701H437.769L415.214 48.131L369.757 21.759C366.981 20.0241 364.205 18.6361 361.082 17.5951C371.492 7.53213 390.577 0.939072 412.438 0.939072C429.094 0.939072 444.015 4.75605 455.119 11.002C458.242 12.737 461.018 14.4721 463.447 16.9011Z" fill="#47B8E0"/>
<path d="M472.82 60.9693H488.435V61.3162L463.798 75.5432L437.773 60.9693H472.82Z" fill="#47B8E0"/>
<path d="M415.564 47.7832L437.772 60.9692L463.797 75.5431L417.993 102.262L415.564 47.7832Z" fill="#47B8E0"/>
<path d="M499.536 108.161H492.943L492.596 104.691C549.504 73.8082 590.45 51.9473 592.532 50.5593C590.45 51.6003 552.627 75.1962 499.536 108.161Z" fill="#9BE5F9"/>
<path d="M369.757 21.7588L415.214 48.1308L413.132 105.386L379.126 125.165L343.038 104.345L340.609 47.0898L338.874 101.916L285.436 71.0328C282.66 69.6448 280.231 67.9098 278.149 66.1748C261.84 52.6418 264.269 34.2508 284.742 22.1058C305.562 9.96085 337.833 8.57281 361.429 17.9418C364.205 18.6358 367.328 20.0238 369.757 21.7588Z" fill="#47B8E0"/>
<path d="M677.892 95.6698C677.892 108.162 667.135 118.919 650.479 124.818C641.11 128.288 630.006 130.37 618.208 130.37H557.83L548.461 124.818L573.098 110.591L598.082 109.897L574.486 109.55L641.457 70.6858C644.233 69.2978 646.315 67.5628 648.397 65.8278C652.561 67.2158 656.378 68.9508 659.848 71.0328C671.299 77.2788 677.892 85.9538 677.892 95.6698Z" fill="#47B8E0"/>
<path d="M344.082 130.37L343.041 103.998L379.129 124.818L369.76 130.37H344.082Z" fill="#47B8E0"/>
<path d="M285.438 70.6855L338.876 101.568L338.182 130.369H309.728C297.93 130.369 286.826 128.287 277.457 124.817C273.987 123.429 270.17 121.694 267.394 119.959C256.637 113.713 249.697 105.038 249.697 95.3225C249.697 82.8305 261.148 71.7265 278.498 65.4805C280.233 67.5625 282.662 69.2975 285.438 70.6855Z" fill="#47B8E0"/>
<path d="M486.002 108.162C465.182 119.266 442.974 131.758 420.072 143.903L417.99 102.263L463.447 75.5436L488.084 61.3166L486.002 108.162Z" fill="#47B8E0"/>
<path d="M369.762 130.369L344.778 144.943L344.084 130.369H369.762Z" fill="#47B8E0"/>
<path d="M430.135 151.189C451.996 137.656 473.51 124.47 493.289 111.978L573.446 110.59L548.809 124.817L501.617 152.23L430.135 151.189Z" fill="#47B8E0"/>
<path d="M548.809 124.818L558.178 130.37L598.777 153.619L501.617 152.231L548.809 124.818Z" fill="#47B8E0"/>
<path d="M337.487 149.107L285.785 178.949C283.009 180.337 280.58 182.072 278.498 183.807C274.334 182.419 270.517 180.684 267.047 178.602C256.29 172.356 249.35 163.681 249.35 153.965C249.35 141.82 260.454 130.716 277.11 124.47C286.479 127.94 297.583 130.022 309.381 130.022H337.835L337.487 149.107Z" fill="#47B8E0"/>
<path d="M411.401 148.414C389.193 160.559 367.332 172.704 346.165 184.155L344.43 144.597L369.761 130.023L379.13 124.471L413.136 104.692L411.401 148.414Z" fill="#47B8E0"/>
<path d="M438.119 189.013L464.144 174.092L490.516 189.013H473.513H438.119Z" fill="#47B8E0"/>
<path d="M363.859 191.441C382.597 179.991 402.376 167.846 421.808 156.048L496.76 155.007L464.142 173.745L438.117 189.013L432.218 192.483L363.859 191.441Z" fill="#47B8E0"/>
<path d="M473.508 189.013V193.177L432.215 192.483L438.114 189.013H473.508Z" fill="#47B8E0"/>
<path d="M490.515 189.013L497.802 193.177H473.512V189.013H490.515Z" fill="#47B8E0"/>
<path d="M648.75 65.8275C646.668 67.5625 644.239 69.2974 641.81 70.6854L574.839 109.549L499.54 108.161C552.631 75.1964 590.454 51.6005 592.536 50.2125C590.454 51.2535 549.508 73.1145 492.6 104.344L489.824 60.6225L556.795 21.7585C559.571 20.0235 562.347 18.9825 565.123 17.5945C588.372 8.57255 620.296 9.96049 641.116 21.7585C662.283 33.9035 664.712 52.2945 648.75 65.8275Z" fill="#47B8E0"/>
<path d="M489.131 47.0893L489.825 60.6223L492.601 104.344L492.948 108.161L489.478 110.243L489.131 109.896L486.008 108.161L488.437 61.3162V60.9693L489.131 47.0893Z" fill="#9BE5F9"/>
<path d="M598.438 109.897L573.454 110.591L493.297 111.979H492.603L489.133 109.897L489.48 110.244L492.95 108.162H499.543L574.842 109.55L598.438 109.897Z" fill="#9BE5F9"/>
<path d="M430.141 151.19L420.425 150.843L420.078 143.903C442.98 131.411 465.188 119.266 486.008 108.162V108.509L489.131 110.244L492.601 112.326H493.295C473.516 124.471 452.002 137.657 430.141 151.19Z" fill="#9BE5F9"/>
<path d="M415.219 46.7428L415.566 47.7838L417.995 102.263L420.077 143.903L420.424 150.843L415.913 153.619H415.566L411.402 151.19V148.414L413.137 105.039L415.219 47.7838V46.7428Z" fill="#9BE5F9"/>
<path d="M598.78 153.618L496.762 155.006L421.81 156.047H420.075L415.564 153.618H415.911L420.422 151.189H430.138L501.62 152.23L598.78 153.618Z" fill="#9BE5F9"/>
<path d="M363.863 191.441L346.513 191.094L346.166 184.154C367.333 172.356 389.194 160.558 411.402 148.413V150.842L415.566 153.271L420.077 155.7H421.812C402.38 168.192 382.948 179.99 363.863 191.441Z" fill="#9BE5F9"/>
<path d="M599.129 194.565L501.969 195.606L473.515 196.3L425.282 196.646L354.147 197.688H346.513L340.961 194.565L346.513 191.441H363.863L432.222 192.483L473.515 193.176H497.805L599.129 194.565Z" fill="#9BE5F9"/>
<path d="M340.613 46.7428L343.042 103.998L344.083 130.37L344.777 144.944L346.512 184.502V191.442L341.307 194.565L336.102 191.442L336.449 190.054L337.49 149.108L338.184 130.37L338.878 101.569L340.613 46.7428Z" fill="#9BE5F9"/>
<path d="M354.147 197.687C332.98 210.526 313.201 222.324 295.851 232.734L285.788 228.223L278.154 222.671C295.157 212.955 315.283 201.851 336.103 190.053V191.788L340.961 194.564L346.513 197.687H354.147Z" fill="#9BE5F9"/>
<path d="M336.45 190.053C315.283 201.851 295.504 212.955 278.501 222.671L286.135 228.223C265.662 216.425 263.233 197.687 278.848 184.154C280.93 182.419 283.359 180.684 286.135 179.296L337.838 149.454L336.45 190.053Z" fill="#47B8E0"/>
<path d="M649.439 183.807C665.748 197.34 663.319 216.078 642.499 228.223C622.026 240.021 589.755 241.409 566.159 232.04C563.036 230.999 560.26 229.611 557.831 227.876L501.964 195.605L599.124 194.564L497.8 193.176L490.513 189.012L464.488 174.091L497.106 155.353L599.124 153.965L642.846 179.296C645.275 180.684 647.357 182.072 649.439 183.807Z" fill="#47B8E0"/>
<path d="M296.194 232.734C313.544 222.324 333.323 210.179 354.49 197.687L425.278 196.993L371.146 228.57C368.37 230.305 365.594 231.693 362.471 232.734C339.222 242.103 306.951 240.715 286.131 228.57L296.194 232.734Z" fill="#47B8E0"/>
<path d="M464.489 233.082C453.732 242.798 435.341 249.044 414.174 249.044C397.518 249.044 382.25 245.227 371.493 238.981C368.023 237.246 364.9 234.817 362.471 232.388C365.594 231.347 368.37 229.959 371.146 228.224L425.278 196.647L473.858 195.953V213.997C473.858 220.937 470.388 227.53 464.489 233.082Z" fill="#47B8E0"/>
<path d="M566.506 232.04C556.096 242.103 537.011 248.696 515.15 248.696C498.494 248.696 483.573 244.879 472.816 238.633C469.693 236.898 466.917 234.816 464.488 232.734C470.387 227.182 473.857 220.936 473.857 213.996V195.952L502.311 195.605L558.178 227.876C560.607 229.611 563.383 230.999 566.506 232.04Z" fill="#47B8E0"/>
<path d="M513.76 0.591736C530.416 0.591736 545.337 4.40873 556.441 11.0017C559.911 12.7367 562.687 15.1658 565.463 17.5948C562.34 18.9828 559.564 20.0237 557.135 21.7587L490.164 60.6227L489.123 47.0898L488.429 60.9698H472.814V35.6387C472.814 28.6987 469.344 22.4528 463.445 16.9008C473.855 7.18477 492.246 0.591736 513.76 0.591736Z" fill="#47B8E0"/>
<path d="M678.242 153.965C678.242 166.457 666.791 177.561 649.441 183.807C647.359 182.072 644.93 180.337 642.501 178.949L598.779 153.618L558.18 130.022H618.558C630.356 130.022 641.46 127.94 650.829 124.47C654.646 125.858 657.769 127.246 660.892 129.328C671.649 135.921 678.242 144.596 678.242 153.965Z" fill="#47B8E0"/>
<path d="M0.900391 354.879C0.900391 347.245 7.14638 340.999 14.7804 340.999C22.4144 340.999 28.6604 347.245 28.6604 354.879C28.6604 362.513 22.4144 368.759 14.7804 368.759C7.14638 368.759 0.900391 362.513 0.900391 354.879Z" fill="#9494E0"/>
<path d="M392.66 359.389H14.7773C12.3483 359.389 10.6133 357.654 10.6133 355.225C10.6133 352.796 12.3483 351.061 14.7773 351.061H390.231L499.883 172.356V129.328C499.883 126.899 501.618 125.164 504.047 125.164C506.476 125.164 508.211 126.899 508.211 129.328V173.744C508.211 174.438 507.864 175.132 507.517 175.826L396.13 357.307C395.783 358.695 394.395 359.389 392.66 359.389Z" fill="#9494E0"/>
</svg>
