<svg viewBox="0 0 631 284" fill="none" xmlns="http://www.w3.org/2000/svg">
<path d="M437.801 15.2C443.101 20 446.201 25.7 446.201 31.9L446.401 54.6H415.001L395.001 43L394.901 41.9V43L354.301 19.5C351.901 18.1 349.301 16.8 346.601 15.8C356.001 6.89999 373.001 0.900024 392.501 0.900024C407.401 0.900024 420.801 4.30002 430.601 9.90002C433.201 11.6 435.701 13.3 437.801 15.2Z" fill="#47B8E0"/>
<path d="M446.401 54.6H460.201V55.1L438.101 67.9L415.001 54.6H446.401Z" fill="#47B8E0"/>
<path d="M395.001 43L415.001 54.6L438.101 67.9L397.301 91.7L395.001 43Z" fill="#47B8E0"/>
<path d="M470.201 96.9L464.201 96.8L464.001 93.6C514.901 65.9 551.501 46.3 553.401 45.2C551.701 46.3 517.801 67.4 470.201 96.9Z" fill="#9BE5F9"/>
<path d="M354.201 19.6L394.801 43.1L392.901 94.2L362.401 111.9L330.001 93.2L328.001 42L326.501 91.2L278.601 63.5C276.201 62.2 274.001 60.7 272.201 59.1C257.701 47 259.701 30.5 278.001 19.6C296.701 8.79996 325.501 7.50001 346.601 15.9C349.201 16.9 351.801 18.1 354.201 19.6Z" fill="#47B8E0"/>
<path d="M629.901 85.7C630.001 96.8 620.201 106.4 605.301 111.9C597.001 114.9 587.101 116.7 576.401 116.7H522.501L514.201 111.9L536.301 99.1L558.701 98.6L537.701 98.2L597.501 63.4C599.901 62.1 602.001 60.6 603.801 59C607.501 60.2 610.901 61.9 614.001 63.6C623.801 69.3 629.801 77.2 629.901 85.7Z" fill="#47B8E0"/>
<path d="M331.101 116.8L330.101 93.2L362.501 111.9L354.201 116.8H331.101Z" fill="#47B8E0"/>
<path d="M278.601 63.5L326.501 91.2L325.801 116.8H300.301C289.701 116.8 279.801 115 271.401 112C268.201 110.8 265.001 109.3 262.301 107.8C252.601 102.2 246.601 94.4 246.501 85.8C246.401 74.5 256.801 64.6 272.201 59.2C274.001 60.6 276.201 62.1 278.601 63.5Z" fill="#47B8E0"/>
<path d="M458.001 96.8C439.501 106.8 419.401 117.8 399.101 128.9L397.301 91.6L438.101 67.8L460.201 55L458.001 96.8Z" fill="#47B8E0"/>
<path d="M354.201 116.8L331.701 129.8L331.101 116.8H354.201Z" fill="#47B8E0"/>
<path d="M408.101 135.4C427.701 123.3 446.901 111.4 464.601 100.4L536.301 99.1L514.201 111.9L472.101 136.3L408.101 135.4Z" fill="#47B8E0"/>
<path d="M514.201 111.9L522.601 116.8L559.001 137.8L472.101 136.4L514.201 111.9Z" fill="#47B8E0"/>
<path d="M325.201 133.6L279.101 160.4C276.701 161.7 274.601 163.3 272.701 164.9C268.901 163.6 265.501 162 262.301 160.2C252.601 154.6 246.501 146.8 246.501 138.2C246.401 127.2 256.401 117.4 271.401 111.9C279.801 114.9 289.701 116.7 300.301 116.7H325.801L325.201 133.6Z" fill="#47B8E0"/>
<path d="M391.501 133.1C371.801 143.9 352.001 154.8 333.101 165.2L331.601 129.8L354.101 116.8L362.401 112L392.901 94.3L391.501 133.1Z" fill="#47B8E0"/>
<path d="M415.301 169.4L438.601 155.8L462.001 169.3L447.001 169.4H415.301Z" fill="#47B8E0"/>
<path d="M348.9 171.6C365.8 161.3 383.4 150.6 400.8 139.9L467.7 139.1L438.6 155.9L415.3 169.5L410.1 172.5L348.9 171.6Z" fill="#47B8E0"/>
<path d="M447.001 169.4V172.9L410.001 172.5L415.301 169.4H447.001Z" fill="#47B8E0"/>
<path d="M462.001 169.3L468.601 173.2L447.001 172.9V169.4L462.001 169.3Z" fill="#47B8E0"/>
<path d="M603.802 59.1C601.902 60.6 599.902 62.1 597.502 63.5L537.702 98.3L470.202 97C517.802 67.5 551.702 46.4 553.402 45.3C551.502 46.4 514.902 65.9 464.002 93.7L461.602 54.5L521.402 19.7C523.702 18.3 526.302 17.1 529.002 16C549.702 7.9 578.502 9.10001 596.902 19.7C615.702 30.4 617.902 47 603.802 59.1Z" fill="#47B8E0"/>
<path d="M460.901 42.2L461.601 54.4L464.001 93.6L464.201 96.8V97L461.201 98.8L460.901 98.6L458.001 97V96.8L460.201 55.1V54.6L460.901 42.2Z" fill="#9BE5F9"/>
<path d="M558.701 98.6L536.301 99.1L464.601 100.5H463.901L460.901 98.6L461.201 98.8L464.201 97V96.8L470.201 96.9L537.701 98.3L558.701 98.6Z" fill="#9BE5F9"/>
<path d="M408.102 135.4L399.402 135.2L399.102 128.9C419.502 117.8 439.502 106.8 458.002 96.8V97L460.802 98.6L463.902 100.4H464.602C446.902 111.5 427.602 123.4 408.102 135.4Z" fill="#9BE5F9"/>
<path d="M394.901 42L395.001 43L397.301 91.7L399.101 128.9L399.401 135.2L395.401 137.8L395.101 137.6L391.501 135.4V133.1L392.901 94.2L394.901 43V42Z" fill="#9BE5F9"/>
<path d="M559.002 137.8L467.702 139L400.802 139.9H399.202L395.102 137.6L395.402 137.8L399.402 135.4H408.102L472.102 136.4L559.002 137.8Z" fill="#9BE5F9"/>
<path d="M348.901 171.6L333.401 171.4L333.201 165.2C352.101 154.8 371.801 143.9 391.601 133.1L391.501 135.4L395.201 137.6L399.201 139.9H400.801C383.401 150.6 365.801 161.4 348.901 171.6Z" fill="#9BE5F9"/>
<path d="M559.201 174.4L472.401 175.3L447.001 175.7L403.601 176.2L340.201 176.9L333.401 177L328.401 174.2L333.401 171.6H348.901L410.001 172.5L447.001 172.9L468.601 173.2L559.201 174.4Z" fill="#9BE5F9"/>
<path d="M328.002 42L330.102 93.2L331.102 116.8L331.702 129.8L333.102 165.2L333.402 171.4L328.702 174.4L324.102 171.6L324.202 170.2L325.202 133.6L325.802 116.8L326.502 91.2L328.002 42Z" fill="#9BE5F9"/>
<path d="M340.201 176.9C321.401 188.3 303.601 199.1 288.101 208.4L279.101 204.3L272.201 199.3C287.601 190.6 305.301 180.7 324.101 170.2L324.001 171.6L328.401 174.1L333.401 177L340.201 176.9Z" fill="#9BE5F9"/>
<path d="M324.201 170.2C305.401 180.7 287.601 190.6 272.301 199.3L279.201 204.3C260.801 193.7 258.601 177 272.801 164.9C274.701 163.3 276.801 161.8 279.201 160.4L325.301 133.6L324.201 170.2Z" fill="#47B8E0"/>
<path d="M604.401 164.8C618.901 177 616.901 193.7 598.301 204.6C580.001 215.2 551.101 216.3 530.101 208C527.401 206.9 524.901 205.7 522.501 204.4L472.401 175.4L559.201 174.4L468.601 173.2L462.001 169.4L438.601 155.9L467.701 139.1L559.001 137.8L598.101 160.3C600.501 161.7 602.601 163.3 604.401 164.8Z" fill="#47B8E0"/>
<path d="M288.101 208.4C303.601 199.1 321.401 188.4 340.201 176.9L403.601 176.2L355.201 204.3C352.901 205.7 350.201 207 347.401 208C326.501 216.2 297.701 215 279.101 204.3L288.101 208.4Z" fill="#47B8E0"/>
<path d="M438.901 208.6C429.401 217.3 412.701 223 393.801 222.9C378.801 223 365.301 219.6 355.501 213.9C352.501 212.2 349.801 210.2 347.501 208C350.301 206.9 352.901 205.7 355.301 204.3L403.701 176.2L447.101 175.7V192C447.101 198 444.101 203.7 438.901 208.6Z" fill="#47B8E0"/>
<path d="M530.1 207.9C520.8 216.9 503.8 222.9 484.2 222.9C469.3 222.9 455.9 219.4 446.2 213.9C443.4 212.3 441 210.4 438.9 208.6C444.2 203.7 447.2 198 447.1 192V175.7L472.4 175.3L522.5 204.3C524.8 205.6 527.3 206.9 530.1 207.9Z" fill="#47B8E0"/>
<path d="M483 0.900024C497.8 1.00002 511.3 4.39998 521.1 10.1C524.1 11.8 526.8 13.8 529.1 15.9C526.4 17.1 523.8 18.2 521.5 19.6L461.7 54.4L460.9 42.2L460.3 54.6H446.5L446.3 31.9C446.2 25.7 443.2 20 437.9 15.2C447.2 6.50001 463.8 0.900024 483 0.900024Z" fill="#47B8E0"/>
<path d="M630.101 138.1C630.201 149.4 619.801 159.3 604.401 164.8C602.601 163.3 600.501 161.8 598.101 160.3L559.001 137.8L522.601 116.8H576.501C587.101 116.8 597.001 115 605.401 112C608.701 113.2 611.701 114.5 614.501 116.2C624.101 121.7 630.101 129.5 630.101 138.1Z" fill="#47B8E0"/>
<path d="M0.100586 275.7C0.100586 271.2 3.70062 267.6 8.20062 267.6C12.7006 267.6 16.3006 271.2 16.3006 275.7C16.3006 280.2 12.7006 283.8 8.20062 283.8C3.80062 283.8 0.100586 280.2 0.100586 275.7Z" fill="#9494E0"/>
<path className="Arrow" d="M251.5 278.2H16.4004C15.0004 278.2 13.9004 277.1 13.9004 275.7C13.9004 274.3 15.0004 273.2 16.4004 273.2H250.2L322.7 168.3V143C322.7 141.6 323.8 140.5 325.2 140.5C326.6 140.5 327.7 141.6 327.7 143V169C327.7 169.5 327.5 170 327.3 170.4L253.6 277C253.1 277.8 252.3 278.2 251.5 278.2Z" fill="#9494E0"/>
</svg>
