<svg viewBox="0 0 645 292" fill="none" xmlns="http://www.w3.org/2000/svg">
<path d="M242.13 87.5242C239.701 86.1362 236.925 85.0951 233.455 84.4011C199.102 76.4202 160.585 76.4202 126.579 84.4011C108.188 88.5651 106.8 101.057 120.68 109.385L154.686 128.817C168.913 137.145 191.815 137.145 206.042 128.817L239.701 109.385C251.152 102.792 252.193 93.0761 242.13 87.5242ZM153.645 107.997C152.257 107.997 151.216 107.65 149.828 106.956C147.746 105.915 146.358 103.486 146.358 101.057C146.358 97.2401 149.134 94.1171 153.298 94.1171C154.686 94.1171 155.727 94.4641 157.115 95.1581C159.197 96.5461 160.585 98.6281 160.585 101.057C160.585 104.874 157.115 107.997 153.645 107.997ZM208.471 107.997C208.124 107.997 207.43 107.997 207.083 107.997C206.042 107.997 204.654 107.65 203.96 106.956C201.878 105.568 200.49 103.486 200.143 101.057C200.143 97.2401 202.919 94.1171 207.083 94.1171C208.471 94.1171 209.512 94.4641 210.553 95.1581C212.635 96.5461 214.023 98.6281 213.676 101.057C214.023 104.527 211.594 107.303 208.471 107.997Z" fill="#E85B5B"/>
<path d="M296.266 94.811C360.461 131.94 360.808 191.971 296.96 229.1C233.459 265.882 129.706 265.882 65.5114 228.753C1.31645 191.624 0.969444 131.593 64.4704 94.811C128.318 57.6821 231.724 57.6821 296.266 94.811ZM271.282 127.429L237.623 147.208C223.396 155.536 223.396 168.722 237.623 176.703L271.976 196.482C285.856 204.463 307.717 203.422 314.657 193.012C328.19 173.233 328.19 151.025 314.657 131.246C313.269 129.164 311.187 127.429 309.105 126.041C298.695 120.142 282.386 120.836 271.282 127.429ZM206.046 128.817L239.705 109.385C250.809 102.792 251.85 93.423 242.134 87.871C239.705 86.483 236.929 85.442 233.459 84.748C199.106 76.767 160.589 76.767 126.583 84.748C108.192 88.912 106.804 101.404 120.684 109.732L154.69 129.164C168.917 137.145 191.819 137.145 206.046 128.817ZM234.5 239.163C252.891 234.999 254.279 222.507 240.399 214.526L206.046 194.747C192.166 186.766 169.264 186.766 155.384 194.747L121.378 214.526C110.274 221.119 108.886 230.141 118.602 235.693C121.031 237.081 124.154 238.122 127.624 239.163C161.977 247.144 200.147 247.144 234.5 239.163ZM90.1483 196.135L124.154 176.356C138.034 168.375 138.034 155.189 124.154 146.861L89.8014 127.082C75.9214 119.101 54.4074 119.795 47.1204 130.552C33.2404 150.331 33.5874 172.886 47.4674 192.665C48.8554 194.747 50.9374 196.482 53.0194 197.87C62.7354 203.422 78.6973 202.728 90.1483 196.135Z" fill="#FF7473"/>
<path d="M123.803 147.208C137.683 155.189 138.03 168.375 123.803 176.703L89.7973 196.482C78.6933 203.075 62.3843 203.769 52.6684 198.217C50.2394 196.829 48.5044 195.094 47.1164 193.012C33.2364 173.233 32.8894 151.025 46.7694 130.899C54.0564 120.489 75.5703 119.448 89.4503 127.429L123.803 147.208ZM75.5703 150.331C82.5103 150.331 87.3683 148.596 87.3683 146.514C87.3683 145.82 86.6743 145.126 85.6333 144.432C83.5513 143.044 79.7343 142.697 75.2234 142.697C68.6304 142.35 63.0783 144.432 63.0783 146.514C63.0783 147.208 63.7723 147.902 64.8133 148.596C67.5893 149.29 71.4063 150.331 75.5703 150.331ZM75.9173 181.214C82.8573 181.214 87.7153 179.479 87.7153 177.397C87.7153 176.703 87.0213 176.009 85.9803 175.315C83.8983 173.927 80.0813 173.233 75.5703 173.58C68.9773 173.233 63.7724 175.315 63.7724 177.397C63.7724 178.091 64.4664 178.785 65.5074 179.479C67.5893 180.52 71.7533 181.214 75.9173 181.214Z" fill="#E85B5B"/>
<path d="M307.02 88.2183C377.114 128.817 377.808 194.4 308.061 235.346C238.314 275.945 124.498 275.945 54.0571 235.346C-16.3838 194.747 -16.7309 128.817 53.0161 88.2183C123.11 47.6193 236.926 47.6193 307.02 88.2183ZM65.5081 228.753C129.703 265.882 233.456 265.882 296.957 229.1C360.805 191.971 360.458 131.94 296.263 94.8113C232.068 57.6823 128.315 57.6823 64.4671 94.8113C0.61914 131.593 0.966148 191.624 65.5081 228.753Z" fill="#C71E00"/>
<path d="M314.303 192.665C307.363 203.422 285.502 204.463 271.622 196.135L237.269 176.356C223.389 168.375 223.389 155.189 237.269 146.861L270.928 127.082C282.379 120.489 298.341 119.795 308.404 125.347C310.486 126.735 312.568 128.47 313.956 130.552C327.836 150.678 327.836 172.886 314.303 192.665ZM285.155 150.331C292.095 150.331 296.953 148.596 296.953 146.167C296.953 145.473 296.259 144.779 295.218 144.085C293.136 143.044 289.319 142.35 284.808 142.35C278.215 142.003 272.663 144.085 272.663 146.167C272.663 146.861 273.357 147.555 274.398 148.249C277.174 149.29 280.991 150.331 285.155 150.331ZM285.502 181.214C292.442 181.214 297.3 179.479 297.3 177.397C297.3 176.703 296.606 176.009 295.565 175.315C293.483 173.927 289.666 173.233 285.502 173.233C278.562 173.233 273.357 174.968 273.704 177.05C273.704 177.744 274.398 178.438 275.439 179.132C277.521 180.52 281.338 181.214 285.502 181.214Z" fill="#E85B5B"/>
<path d="M240.394 214.526C254.274 222.507 252.886 234.999 234.495 239.163C200.142 247.144 161.972 247.144 127.619 239.163C123.802 238.122 121.026 237.081 118.597 235.693C108.881 230.141 110.269 220.772 121.373 214.526L155.379 194.747C169.259 186.766 192.161 186.766 206.041 194.747L240.394 214.526ZM154.338 229.447C158.502 229.447 161.278 226.324 161.278 222.507C161.278 220.078 159.89 217.649 158.155 216.608C157.114 215.914 155.726 215.567 154.685 215.567C150.868 215.567 147.745 218.69 148.092 222.507C148.092 224.936 149.48 227.365 151.562 228.406C151.909 229.1 152.95 229.447 154.338 229.447ZM207.776 229.447C211.593 229.447 214.716 226.324 214.716 222.507C215.063 220.078 213.675 217.649 211.593 216.608C210.552 215.914 209.164 215.567 208.123 215.567C203.959 215.567 201.183 218.69 201.183 222.507C201.183 224.936 202.571 227.365 204.653 228.406C205.347 229.1 206.735 229.447 207.776 229.447Z" fill="#E85B5B"/>
<path d="M210.548 95.1587C212.63 96.5467 214.018 98.6287 213.671 101.058C214.018 104.875 210.548 107.651 206.731 107.998C205.69 107.998 204.302 107.651 203.608 106.957C201.526 105.569 200.138 103.487 199.791 101.058C199.791 97.2407 202.567 94.1177 206.731 94.1177C208.466 94.1177 209.507 94.4647 210.548 95.1587Z" fill="#FF7473"/>
<path d="M295.569 144.085C296.61 144.779 297.304 145.473 297.304 146.167C297.304 148.596 292.099 149.984 285.506 150.331C281.342 150.331 277.525 149.29 275.096 148.249C274.055 147.555 273.361 146.861 273.361 146.167C273.361 144.085 278.913 142.003 285.506 142.35C289.67 142.35 293.487 143.044 295.569 144.085Z" fill="#FF7473"/>
<path d="M85.9794 144.085C87.0204 144.779 87.7144 145.473 87.7144 146.167C87.3674 148.249 82.8565 149.984 75.9165 150.331C71.7525 150.331 67.5885 149.29 65.5065 148.249C64.4655 147.555 64.1185 146.861 63.7715 146.167C63.7715 144.085 69.3235 142.003 75.9165 142.35C80.0805 142.35 83.8974 143.044 85.9794 144.085Z" fill="#FF7473"/>
<path d="M295.57 175.316C296.611 176.01 297.305 176.704 297.305 177.398C296.958 179.48 292.1 181.215 285.507 181.215C281.343 181.215 277.526 180.521 275.444 179.133C274.403 178.439 273.709 177.745 273.709 177.051C273.362 174.969 278.914 173.234 285.507 173.234C290.018 173.234 293.835 173.928 295.57 175.316Z" fill="#FF7473"/>
<path d="M86.3252 175.316C87.3662 176.01 88.0602 176.704 88.0602 177.398C87.7132 179.48 82.8551 181.215 76.2621 181.215C71.7512 181.215 67.9342 180.521 65.8522 179.133C64.8112 178.439 64.1172 177.745 64.1172 177.051C64.1172 174.622 69.3222 172.887 75.9152 173.234C80.4262 173.234 84.2432 173.928 86.3252 175.316Z" fill="#FF7473"/>
<path d="M157.118 95.1587C159.2 96.5467 160.588 98.6287 160.588 101.058C160.588 104.875 157.118 107.998 153.648 107.998C152.26 107.998 151.219 107.651 149.831 106.957C147.749 105.916 146.361 103.487 146.361 101.058C146.361 97.2407 149.137 94.1177 153.301 94.1177C154.689 94.1177 156.077 94.4647 157.118 95.1587Z" fill="#FF7473"/>
<path d="M211.246 216.609C213.328 217.997 214.716 220.079 214.369 222.508C214.716 226.325 211.246 229.448 207.429 229.448C206.388 229.448 205.347 229.101 204.306 228.407C202.224 227.019 200.836 224.937 200.836 222.508C200.836 218.691 203.612 215.568 207.776 215.568C208.817 215.568 210.205 215.915 211.246 216.609Z" fill="#FF7473"/>
<path d="M157.806 216.609C159.888 217.997 161.277 220.079 160.93 222.508C161.277 226.325 158.154 229.448 153.99 229.448C152.949 229.448 151.907 229.101 150.866 228.407C148.784 227.019 147.396 224.937 147.396 222.508C147.396 218.691 150.173 215.568 153.99 215.568C155.378 215.568 156.765 215.915 157.806 216.609Z" fill="#FF7473"/>
<path d="M355.253 186.419C353.865 189.542 352.477 192.318 350.742 195.441C349.354 197.523 348.313 199.605 346.578 201.687C343.108 206.545 339.291 211.056 334.433 215.914C331.657 218.343 328.881 220.772 326.105 223.201C323.329 225.283 320.553 227.712 317.43 229.794C314.307 231.876 311.184 233.958 307.714 235.693C302.162 239.163 296.263 241.939 290.017 244.715C285.159 246.797 280.648 248.879 275.443 250.614C274.749 250.961 274.402 250.961 273.708 251.308C265.033 254.431 256.011 256.86 246.642 258.942C244.213 259.636 241.784 259.983 239.008 260.677C239.008 267.964 239.008 275.251 239.008 282.538C239.008 283.926 239.008 284.967 239.008 286.355C241.437 285.661 244.213 285.314 246.642 284.62C256.011 282.538 265.033 279.762 273.708 276.986C274.402 276.639 275.096 276.639 275.443 276.292C280.301 274.557 285.159 272.475 290.017 270.393C295.916 267.617 301.815 264.841 307.714 261.371C311.184 259.289 314.307 257.207 317.43 255.472C320.553 253.39 323.329 251.308 326.105 248.879C329.228 246.45 332.004 244.021 334.433 241.592C339.291 237.081 343.108 232.223 346.578 227.365C347.966 225.283 349.354 223.201 350.742 221.119C352.477 217.996 353.865 215.22 355.253 212.097C358.376 204.116 360.111 196.135 360.111 188.154C360.111 180.52 360.111 170.457 360.111 162.476C360.111 170.457 358.723 178.438 355.253 186.419Z" fill="#A81400"/>
<path d="M184.528 265.882C183.14 265.882 182.099 265.882 180.711 265.882C158.503 265.882 135.948 263.453 114.781 258.595C114.434 258.595 114.087 258.595 114.087 258.595C105.412 256.513 97.0844 254.084 89.1034 251.308C83.2044 249.226 77.6524 247.144 72.1004 244.715C65.8544 241.939 59.9554 238.816 54.0564 235.693C50.5864 233.958 47.4634 231.529 44.3404 229.447C41.2174 227.365 38.0944 224.936 35.3184 222.854C32.1954 220.425 29.4194 217.996 26.9904 215.567C22.1325 210.709 17.9685 205.851 14.4985 200.993C14.4985 200.646 14.1515 200.646 14.1515 200.646C13.8045 200.299 13.8045 199.952 13.4575 199.605C5.1295 187.46 1.3125 174.274 1.3125 161.435V187.113C1.3125 199.952 5.4765 212.791 13.4575 225.283C13.4575 225.63 13.8045 225.977 14.1515 226.324L14.4985 226.671C17.9685 231.529 22.1325 236.387 26.9904 241.245C29.7664 243.674 32.5424 246.103 35.6654 248.532C38.4414 250.614 41.5645 253.043 44.6874 255.125C47.8104 257.207 50.9334 259.289 54.4034 261.371C60.3024 264.494 66.2014 267.617 72.4474 270.393C77.9994 272.822 83.5514 274.904 89.4504 276.986C97.4314 279.762 105.759 282.191 114.434 284.273C114.781 284.273 115.128 284.273 115.128 284.273C136.295 289.131 158.503 291.56 181.058 291.56C182.446 291.56 183.487 291.56 184.875 291.56C203.613 291.213 222.004 289.478 239.701 286.008C239.701 277.333 239.701 269.005 239.701 260.33C221.657 263.8 203.266 265.535 184.528 265.882Z" fill="#A81400"/>
<path d="M223.387 105.221C222.346 105.221 221.305 104.874 220.264 103.833C218.529 102.098 218.529 99.322 220.264 97.934L306.667 11.5311C307.361 10.8371 308.402 10.1431 309.79 10.1431H630.765C633.194 10.1431 634.929 11.8781 634.929 14.3071C634.929 16.7361 633.194 18.4711 630.765 18.4711H311.525L226.51 103.486C225.469 104.874 224.428 105.221 223.387 105.221Z" fill="#9494E0"/>
<path d="M617.24 14.6542C617.24 7.02022 623.486 0.774231 631.12 0.774231C638.754 0.774231 645 7.02022 645 14.6542C645 22.2882 638.754 28.5342 631.12 28.5342C623.139 28.5342 617.24 22.2882 617.24 14.6542Z" fill="#9494E0"/>
</svg>
