<svg viewBox="0 0 474 182" fill="none" xmlns="http://www.w3.org/2000/svg">
<path d="M182.101 27.9C180.401 26.8 178.201 26.1 175.601 25.5C149.801 19.5 120.601 19.5 94.9005 25.5C81.2005 28.7 80.0006 38.1 90.5006 44.2L116.101 59C126.801 65.3 144.001 65.2 154.701 59L180.201 44.2C188.701 39.3 189.501 32.1 182.101 27.9ZM115.401 43.2C114.401 43.2 113.401 42.9 112.601 42.4C111.001 41.6 110.001 39.9 110.001 38.1C110.001 35.1 112.101 32.9 115.101 32.9C116.101 32.9 117.101 33.2 117.901 33.6C119.501 34.5 120.601 36.2 120.501 37.9C120.601 40.9 118.001 43.2 115.401 43.2ZM156.601 43.2C156.301 43.2 155.901 43.3 155.601 43.3C154.701 43.3 153.901 43 153.201 42.6C151.601 41.6 150.501 40 150.401 38.1C150.401 35.1 152.501 32.9 155.501 32.9C156.501 32.9 157.401 33.2 158.201 33.6C159.701 34.5 160.801 36.2 160.701 38.1C160.901 40.6 158.901 42.6 156.601 43.2Z" fill="#E85B5B"/>
<path d="M222.701 33.3C271.101 61.3 271.401 106.5 223.301 134.5C175.301 162.3 97.301 162.3 48.801 134.4C0.300976 106.4 0.100971 61.2 48.001 33.4C96.101 5.29999 174.201 5.29998 222.701 33.3ZM203.901 57.8L178.401 72.6C167.801 78.8 167.801 88.7 178.301 94.8L204.101 109.7C214.601 115.8 231.001 115 236.301 107C246.501 92 246.601 75.2 236.201 60.4C235.101 58.9 233.601 57.6 231.901 56.6C224.601 52.4 212.401 52.9 203.901 57.8ZM154.801 59L180.301 44.2C188.801 39.3 189.501 32.1 182.101 27.9C180.401 26.8 178.201 26.1 175.601 25.5C149.801 19.5 120.601 19.5 94.901 25.5C81.201 28.7 80.001 38.1 90.501 44.2L116.101 59C126.901 65.2 144.101 65.2 154.801 59ZM176.301 142C190.201 138.9 191.201 129.5 180.701 123.5L154.801 108.5C144.301 102.5 127.101 102.5 116.601 108.5L90.901 123.5C82.501 128.4 81.501 135.4 88.901 139.6C90.701 140.7 93.001 141.5 95.801 142.2C121.601 148.1 150.401 148.1 176.301 142ZM67.301 109.8L93.001 94.9C103.501 88.8 103.401 78.8 92.901 72.8L67.001 57.8C56.401 51.8 40.401 52.3 34.801 60.3C24.401 75.3 24.701 92.1 35.101 107.1C36.201 108.7 37.601 110 39.401 111C46.701 115.2 58.901 114.7 67.301 109.8Z" fill="#FF7473"/>
<path d="M92.9001 72.8C103.4 78.9 103.5 88.8 93.0001 94.9L67.3001 109.8C58.9001 114.7 46.7001 115.2 39.4001 111C37.6001 110 36.2001 108.7 35.1001 107.1C24.7001 92.1 24.4001 75.3 34.8001 60.3C40.4001 52.3 56.4001 51.8 67.0001 57.8L92.9001 72.8ZM56.6001 75.1C61.8001 75.1 65.4001 73.8 65.6001 72.1C65.6001 71.5 65.2001 71 64.4001 70.5C62.9001 69.6 59.9001 69.1 56.6001 69.1C51.7001 68.9 47.6001 70.4 47.6001 72C47.7001 72.6 48.2001 73 48.9001 73.5C50.4001 74.5 53.4001 75.2 56.6001 75.1ZM56.8001 98.5C61.9001 98.5 65.6001 97.2 65.8001 95.5C65.8001 94.9 65.3001 94.4 64.6001 93.9C63.0001 93 60.1001 92.4 56.8001 92.5C51.9001 92.4 47.8001 93.8 47.8001 95.5C47.8001 96 48.3001 96.5 49.0001 97C50.6001 97.9 53.5001 98.5 56.8001 98.5Z" fill="#E85B5B"/>
<path d="M231 28.4C284 59 284.5 108.5 231.701 139.2C179.1 169.8 93.3005 169.8 40.3005 139.2C-12.6995 108.7 -12.9995 59 39.6005 28.4C92.4005 -2.30001 178.1 -2.20001 231 28.4ZM48.8005 134.3C97.2005 162.3 175.3 162.3 223.3 134.4C271.4 106.4 271.1 61.2 222.701 33.2C174.301 5.20001 96.2005 5.20001 48.1005 33.2C0.100494 61.1 0.300499 106.3 48.8005 134.3Z" fill="#C71E00"/>
<path d="M236.4 107.1C231.1 115.1 214.7 115.9 204.2 109.8L178.4 94.9C167.8 88.8 167.8 78.8 178.5 72.7L204 57.9C212.5 53 224.7 52.4 232.1 56.7C233.8 57.7 235.3 59 236.4 60.5C246.7 75.4 246.6 92.1 236.4 107.1ZM214.5 75.2C219.7 75.1 223.5 74 223.5 72.1C223.5 71.5 223.1 71 222.3 70.5C220.7 69.7 217.8 69.1 214.5 69.1C209.6 68.9 205.5 70.4 205.5 72C205.6 72.6 206.1 73 206.8 73.5C208.4 74.5 211.3 75.1 214.5 75.2ZM214.7 98.5C219.9 98.5 223.5 97.1 223.7 95.5C223.7 94.9 223.2 94.4 222.4 93.9C220.8 93 218 92.4 214.8 92.4C209.7 92.4 205.6 93.8 205.8 95.4C205.8 96 206.3 96.5 207.1 97C208.7 97.9 211.5 98.5 214.7 98.5Z" fill="#E85B5B"/>
<path d="M180.701 123.5C191.201 129.6 190.201 138.9 176.301 142C150.401 148.1 121.601 148 95.8005 142.1C93.0005 141.4 90.7005 140.6 88.9005 139.5C81.6005 135.3 82.5005 128.3 90.9005 123.4L116.601 108.4C127.101 102.4 144.201 102.4 154.801 108.4L180.701 123.5ZM115.701 134.8C118.701 134.8 121.001 132.5 120.901 129.6C121.001 127.7 120.001 126 118.401 125.1C117.601 124.7 116.701 124.4 115.701 124.4C112.701 124.4 110.501 126.6 110.601 129.6C110.601 131.5 111.701 133.1 113.301 134.1C114.001 134.5 114.901 134.8 115.701 134.8ZM156.101 134.8C158.901 134.7 161.401 132.5 161.201 129.6C161.401 127.7 160.301 126 158.801 125.1C158.001 124.7 157.001 124.4 156.101 124.4C153.101 124.4 150.901 126.6 150.901 129.6C150.901 131.5 152.001 133.2 153.601 134.1C154.401 134.5 155.201 134.8 156.101 134.8Z" fill="#E85B5B"/>
<path d="M158.2 33.6C159.8 34.5 160.8 36.2 160.7 38.1C160.9 41 158.3 43.2 155.6 43.3C154.7 43.3 153.9 43 153.2 42.6C151.6 41.6 150.5 40 150.4 38.1C150.4 35.1 152.5 32.9 155.5 32.9C156.5 32.9 157.4 33.2 158.2 33.6Z" fill="#FF7473"/>
<path d="M222.3 70.5C223.1 71 223.5 71.5 223.5 72.1C223.5 73.9 219.7 75.1 214.5 75.2C211.3 75.1 208.4 74.5 206.8 73.6C206.1 73.1 205.6 72.7 205.5 72.1C205.5 70.4 209.6 69 214.5 69.2C217.8 69.1 220.7 69.7 222.3 70.5Z" fill="#FF7473"/>
<path d="M64.3004 70.5C65.1004 71 65.5004 71.5 65.5004 72.1C65.3004 73.8 61.7004 75.1 56.5004 75.2C53.3004 75.2 50.3004 74.5 48.7004 73.6C48.0004 73.1 47.6004 72.7 47.4004 72.1C47.4004 70.4 51.5004 69 56.4004 69.2C59.9004 69.1 62.8004 69.6 64.3004 70.5Z" fill="#FF7473"/>
<path d="M222.401 93.9C223.201 94.4 223.701 94.9 223.701 95.5C223.501 97.2 219.901 98.5 214.701 98.5C211.601 98.5 208.701 97.9 207.201 97C206.401 96.5 205.901 96 205.901 95.4C205.701 93.8 209.801 92.4 214.901 92.4C218.001 92.4 220.801 93 222.401 93.9Z" fill="#FF7473"/>
<path d="M64.5002 93.9C65.3002 94.4 65.7002 94.9 65.7002 95.5C65.5002 97.2 61.8002 98.5 56.7002 98.5C53.4002 98.5 50.5002 97.9 48.9002 97C48.2002 96.5 47.7002 96 47.7002 95.5C47.7002 93.8 51.8002 92.4 56.7002 92.5C60.0002 92.4 62.9002 93 64.5002 93.9Z" fill="#FF7473"/>
<path d="M117.9 33.6C119.5 34.5 120.6 36.2 120.5 37.9C120.5 40.9 118 43.1 115.4 43.2C114.4 43.2 113.4 42.9 112.6 42.4C111 41.6 110 39.9 110 38.1C110 35.1 112.1 32.9 115.1 32.9C116.2 32.9 117.1 33.2 117.9 33.6Z" fill="#FF7473"/>
<path d="M158.8 125.1C160.3 126 161.4 127.7 161.2 129.6C161.4 132.5 158.8 134.7 156.1 134.8C155.2 134.8 154.4 134.5 153.6 134.1C152 133.2 150.9 131.5 150.9 129.6C150.9 126.6 153 124.4 156.1 124.4C157 124.3 157.9 124.6 158.8 125.1Z" fill="#FF7473"/>
<path d="M118.4 125.1C119.9 126 121 127.7 120.9 129.6C121.1 132.5 118.8 134.8 115.7 134.8C114.9 134.8 114 134.5 113.3 134.1C111.7 133.2 110.6 131.5 110.6 129.6C110.5 126.6 112.7 124.4 115.7 124.4C116.7 124.3 117.6 124.6 118.4 125.1Z" fill="#FF7473"/>
<path d="M267.3 102.3C266.4 104.6 265.2 106.9 263.9 109.1C263 110.7 262 112.2 260.9 113.8C258.3 117.5 255.3 121 251.8 124.4C249.8 126.2 247.7 128.1 245.5 129.9C243.4 131.5 241.3 133.2 238.9 134.8C236.6 136.3 234.2 137.8 231.7 139.3C227.5 141.8 223 144.1 218.4 146.1C214.9 147.7 211.2 149.1 207.5 150.5C207.1 150.6 206.6 150.8 206.1 151C199.5 153.3 192.7 155.2 185.6 156.8C183.7 157.3 181.8 157.6 180 158.1C180 163.6 180 169 180 174.5C180 175.4 180 176.3 180 177.3C181.9 176.9 183.8 176.5 185.7 176.1C192.7 174.4 199.6 172.5 206.1 170.2C206.6 170 207.1 169.9 207.5 169.7C211.3 168.3 214.9 166.9 218.5 165.3C223.1 163.2 227.5 161 231.7 158.6C234.2 157.1 236.6 155.6 238.9 154.1C241.3 152.5 243.4 150.9 245.5 149.2C247.8 147.4 249.8 145.6 251.8 143.7C255.3 140.3 258.4 136.7 261 133.1C262.1 131.5 263.1 130 264 128.4C265.3 126.1 266.4 123.9 267.4 121.5C269.8 115.6 271 109.5 271 103.5C271 97.7 271.1 90.1 271.1 84.2C271 90.3 269.7 96.4 267.3 102.3Z" fill="#A81400"/>
<path d="M138.6 162.2C137.6 162.3 136.6 162.3 135.7 162.3C118.9 162.2 102 160.4 86.1004 156.7C85.9004 156.7 85.7004 156.6 85.5004 156.6C79.0004 155.1 72.7004 153.3 66.6004 151.2C62.2004 149.7 58.0004 148 53.9004 146.2C49.2004 144.1 44.6004 141.8 40.3004 139.3C37.7004 137.9 35.2004 136.3 32.9004 134.7C30.5004 133.1 28.3004 131.4 26.2004 129.8C23.9004 128 21.8004 126 19.8004 124.2C16.1004 120.7 13.0004 117 10.4004 113.2C10.3004 113.1 10.2004 112.9 10.1004 112.9C10.0004 112.7 9.80039 112.4 9.70039 112.2C3.50039 103 0.400391 93.2 0.500391 83.5V102.7C0.500391 112.5 3.50039 122.1 9.70039 131.4C9.80039 131.6 10.0004 131.8 10.1004 132.1C10.2004 132.2 10.2004 132.3 10.3004 132.4C12.9004 136.2 16.1004 139.8 19.8004 143.4C21.8004 145.3 23.9004 147.2 26.2004 149C28.3004 150.7 30.5004 152.4 32.9004 153.9C35.2004 155.5 37.7004 157.1 40.3004 158.6C44.6004 161.1 49.2004 163.3 53.9004 165.4C58.0004 167.2 62.3004 168.9 66.6004 170.4C72.7004 172.5 79.0004 174.3 85.5004 175.8C85.7004 175.9 85.9004 175.9 86.1004 175.9C102 179.5 118.9 181.4 135.7 181.5C136.7 181.5 137.6 181.5 138.6 181.5C152.6 181.3 166.6 179.9 179.9 177.3C179.9 170.9 180 164.5 180 158.1C166.6 160.7 152.6 162 138.6 162.2Z" fill="#A81400"/>
<path d="M456.9 8.79999C456.9 4.29999 460.5 0.700012 465 0.700012C469.5 0.700012 473.1 4.29999 473.1 8.79999C473.1 13.3 469.5 16.9 465 16.9C460.6 16.9 456.9 13.3 456.9 8.79999Z" fill="#9494E0"/>
<path className="Arrow" d="M225.8 62C225.2 62 224.5 61.8 224 61.3C223 60.3 223 58.7 224 57.8L274.7 7.10001C275.2 6.60001 275.8 6.39999 276.5 6.39999H465C466.4 6.39999 467.5 7.49999 467.5 8.89999C467.5 10.3 466.4 11.4 465 11.4H277.5L227.5 61.4C227.1 61.8 226.5 62 225.8 62Z" fill="#9494E0"/>
</svg>
