<svg width="0" height="0" viewBox="0 0 199 99" fill="none" xmlns="http://www.w3.org/2000/svg">
<path d="M15.95 98.6821H182.615C192.688 98.6821 199.556 90.4428 197.725 80.8303C196.809 75.7951 195.435 69.8445 193.146 64.3517C188.567 51.9927 182.157 44.2111 178.952 39.176C175.747 35.0564 170.253 27.7325 161.095 20.8664C159.264 19.4932 151.022 13.0849 138.202 8.04976C132.707 5.76106 122.176 2.09912 107.982 0.725901C101.572 0.268161 89.2094 0.725901 89.2094 0.725901C83.715 1.18364 79.5941 2.09913 77.3047 2.55686C61.7371 5.76104 50.7482 12.1694 47.0852 14.4581C45.2537 15.8313 38.3856 19.951 31.0597 26.8171C28.7703 28.648 20.5287 36.8873 13.2027 49.704C9.99764 54.7392 5.87671 62.063 2.67161 72.1333C1.75587 74.8797 1.29802 77.1684 0.840152 79.9148C-1.4492 89.5273 5.87682 98.6821 15.95 98.6821Z" fill="#FFC952"/>
</svg>
