<svg width="0" height="0" viewBox="0 0 19 37" fill="none" xmlns="http://www.w3.org/2000/svg">
<path d="M16.5133 0.311956C11.5133 2.41196 6.21334 3.81192 0.813337 4.21192L-3.28676 4.61194C-3.38676 4.61194 -3.58666 4.61194 -3.68666 4.61194H-3.88674C-7.58674 5.01194 -11.1867 6.71192 -13.8867 9.71192C-19.2867 15.6119 -19.3867 24.9119 -14.0867 30.9119C-7.98669 37.9119 2.71324 38.212 9.21324 31.812C11.9132 29.212 13.4133 25.9119 13.8133 22.4119V22.2119C13.8133 22.1119 13.8133 21.912 13.8133 21.812L14.2132 17.7119C14.8132 12.3119 16.2133 7.01191 18.4133 2.01191C19.2133 0.311907 18.4133 -0.488044 16.5133 0.311956Z" fill="#E8EAEF"/>
</svg>
