<svg width="0" height="0" viewBox="0 0 19 37" fill="none" xmlns="http://www.w3.org/2000/svg">
<path d="M35.5133 0.311956C30.5133 2.41196 25.2133 3.81192 19.8133 4.21192L15.7132 4.61194C15.6132 4.61194 15.4133 4.61194 15.3133 4.61194H15.1133C11.4133 5.01194 7.81326 6.71192 5.11326 9.71192C-0.286736 15.6119 -0.386688 24.9119 4.91331 30.9119C11.0133 37.9119 21.7132 38.212 28.2132 31.812C30.9132 29.212 32.4133 25.9119 32.8133 22.4119V22.2119C32.8133 22.1119 32.8133 21.912 32.8133 21.812L33.2132 17.7119C33.8132 12.3119 35.2133 7.01191 37.4133 2.01191C38.2133 0.311907 37.4133 -0.488044 35.5133 0.311956Z" fill="#E8EAEF"/>
</svg>
