<svg width="0" height="0" viewBox="0 0 17 32" fill="none" xmlns="http://www.w3.org/2000/svg">
<path d="M14.0756 0.274269C9.71851 2.12057 5.10002 3.35141 0.394342 3.70309L-3.17857 4.05479C-3.26571 4.05479 -3.43991 4.05479 -3.52705 4.05479H-3.7014C-6.92566 4.40647 -10.0628 5.90107 -12.4156 8.53865C-17.1213 13.7259 -17.2084 21.9024 -12.5899 27.1776C-7.27419 33.3319 2.04996 33.5957 7.7142 27.9688C10.067 25.6829 11.3743 22.7816 11.7228 19.7044V19.5286C11.7228 19.4406 11.7228 19.2648 11.7228 19.1769L12.0713 15.5722C12.5942 10.8246 13.8142 6.16482 15.7313 1.76885C16.4285 0.274226 15.7313 -0.429085 14.0756 0.274269Z" fill="#E8EAEF"/>
</svg>
