<svg width="0" height="0" viewBox="0 0 17 32" fill="none" xmlns="http://www.w3.org/2000/svg">
<path d="M31.0756 0.274269C26.7185 2.12057 22.1 3.35141 17.3943 3.70309L13.8214 4.05479C13.7343 4.05479 13.5601 4.05479 13.4729 4.05479H13.2986C10.0743 4.40647 6.93722 5.90107 4.58439 8.53865C-0.12129 13.7259 -0.208389 21.9024 4.41014 27.1776C9.72581 33.3319 19.05 33.5957 24.7142 27.9688C27.067 25.6829 28.3743 22.7816 28.7228 19.7044V19.5286C28.7228 19.4406 28.7228 19.2648 28.7228 19.1769L29.0713 15.5722C29.5942 10.8246 30.8142 6.16482 32.7313 1.76885C33.4285 0.274226 32.7313 -0.429085 31.0756 0.274269Z" fill="#E8EAEF"/>
</svg>
