<svg width="17" height="36" viewBox="0 0 17 36" fill="none" xmlns="http://www.w3.org/2000/svg">
<path d="M16.6079 9.40062C16.3051 8.10331 16.0023 6.30702 14.9931 4.21136C14.2866 2.71447 13.4792 1.517 12.6718 0.51907C12.1672 -0.0796884 11.2589 -0.179494 10.5524 0.319472L-20.5323 27.7626C-21.1379 28.2615 -21.1379 29.2594 -20.6333 29.8582C-19.4222 31.1555 -17.7065 32.4528 -15.5871 33.5505C-13.064 34.8479 -10.7427 35.3468 -9.5316 35.5464C-8.42143 35.746 -6.4029 36.1452 -3.87979 35.9456C-3.37516 35.9456 -1.05392 35.746 1.77197 34.7481C2.98306 34.3489 5.30433 33.351 7.82744 31.5547C8.93761 30.7563 10.9561 28.7605 10.9561 28.7605C11.8644 27.8624 12.369 27.064 12.6718 26.7646C14.7912 23.8706 15.5986 21.276 15.9014 20.3779C16.0023 19.8789 16.5069 18.1824 16.7088 15.987C17.0116 15.0889 17.2134 12.594 16.6079 9.40062Z" fill="#E8EAEF"/>
</svg>
