<svg width="0" height="0" viewBox="0 0 19 36" fill="none" xmlns="http://www.w3.org/2000/svg">
<path d="M37.6079 9.40062C37.3051 8.10331 37.0023 6.30702 35.9931 4.21136C35.2866 2.71447 34.4792 1.517 33.6718 0.51907C33.1672 -0.0796884 32.2589 -0.179494 31.5524 0.319472L0.467657 27.7626C-0.13789 28.2615 -0.137927 29.2594 0.366696 29.8582C1.57779 31.1555 3.29351 32.4528 5.41293 33.5505C7.93604 34.8479 10.2573 35.3468 11.4684 35.5464C12.5786 35.746 14.5971 36.1452 17.1202 35.9456C17.6248 35.9456 19.9461 35.746 22.772 34.7481C23.9831 34.3489 26.3043 33.351 28.8274 31.5547C29.9376 30.7563 31.9561 28.7605 31.9561 28.7605C32.8644 27.8624 33.369 27.064 33.6718 26.7646C35.7912 23.8706 36.5986 21.276 36.9014 20.3779C37.0023 19.8789 37.5069 18.1824 37.7088 15.987C38.0116 15.0889 38.2134 12.594 37.6079 9.40062Z" fill="#E8EAEF"/>
</svg>
