<svg width="0" height="0" viewBox="0 0 17 33" fill="none" xmlns="http://www.w3.org/2000/svg">
<path d="M32.6698 8.3561C32.4148 7.20294 32.1598 5.60624 31.3099 3.74343C30.715 2.41286 30.0351 1.34844 29.3552 0.461396C28.9303 -0.0708342 28.1654 -0.15955 27.5705 0.283975L1.39382 24.6778C0.883882 25.1214 0.883851 26.0084 1.3088 26.5406C2.32867 27.6938 3.77348 28.847 5.55825 29.8227C7.68298 30.9759 9.63773 31.4194 10.6576 31.5968C11.5925 31.7742 13.2923 32.1291 15.417 31.9517C15.842 31.9517 17.7967 31.7742 20.1764 30.8872C21.1963 30.5324 23.151 29.6453 25.2757 28.0486C26.2106 27.339 27.9104 25.5649 27.9104 25.5649C28.6753 24.7665 29.1002 24.0569 29.3552 23.7908C31.14 21.2183 31.8199 18.912 32.0749 18.1136C32.1599 17.6701 32.5848 16.1622 32.7548 14.2107C33.0097 13.4123 33.1797 11.1947 32.6698 8.3561Z" fill="#E8EAEF"/>
</svg>
