<svg width="0" height="0" viewBox="0 0 17 33" fill="none" xmlns="http://www.w3.org/2000/svg">
<path d="M15.6698 8.3561C15.4148 7.20294 15.1598 5.60624 14.3099 3.74343C13.715 2.41286 13.0351 1.34844 12.3552 0.461396C11.9303 -0.0708342 11.1654 -0.15955 10.5705 0.283975L-15.6062 24.6778C-16.1161 25.1214 -16.1161 26.0084 -15.6912 26.5406C-14.6713 27.6938 -13.2265 28.847 -11.4417 29.8227C-9.31702 30.9759 -7.36227 31.4194 -6.3424 31.5968C-5.40752 31.7742 -3.7077 32.1291 -1.58298 31.9517C-1.15803 31.9517 0.796698 31.7742 3.17639 30.8872C4.19626 30.5324 6.15101 29.6453 8.27574 28.0486C9.21062 27.339 10.9104 25.5649 10.9104 25.5649C11.6753 24.7665 12.1002 24.0569 12.3552 23.7908C14.14 21.2183 14.8199 18.912 15.0749 18.1136C15.1599 17.6701 15.5848 16.1622 15.7548 14.2107C16.0097 13.4123 16.1797 11.1947 15.6698 8.3561Z" fill="#E8EAEF"/>
</svg>
