<svg width="0" height="0" viewBox="0 0 340 340" fill="none" xmlns="http://www.w3.org/2000/svg">
<path d="M309.521 339.185H29.7616C13.2783 339.185 0 325.91 0 309.432V29.753C0 13.2744 13.2783 0 29.7616 0H309.521C326.004 0 339.283 13.2744 339.283 29.753V309.432C339.283 325.91 326.004 339.185 309.521 339.185Z" fill="#4340B5"/>
<path d="M264.65 212.391C262.361 212.391 260.071 211.476 258.698 209.645C257.324 207.814 256.408 205.525 256.408 203.236L259.155 62.7103C259.155 61.3371 260.071 60.4216 261.445 60.4216H267.397C268.771 60.4216 269.686 61.3371 269.686 62.7103L272.434 203.694C272.434 205.983 271.518 208.271 270.144 210.102C268.771 211.476 266.939 212.391 264.65 212.391ZM264.192 65.4567L261.445 203.694C261.445 204.609 261.903 205.525 262.361 206.44C262.818 206.898 263.734 207.356 264.65 207.356C265.566 207.356 266.481 206.898 266.939 206.44C267.397 205.525 267.855 204.609 267.855 203.694L265.108 64.999H264.192V65.4567Z" fill="white"/>
<path d="M247.708 212.391C245.419 212.391 243.13 211.476 241.756 209.645C240.383 207.814 239.467 205.525 239.467 203.236L242.214 62.7103C242.214 61.3371 243.13 60.4216 244.503 60.4216H250.456C251.829 60.4216 252.745 61.3371 252.745 62.7103L255.492 203.694C255.492 205.983 254.577 208.271 253.203 210.102C251.829 211.476 249.998 212.391 247.708 212.391ZM247.251 65.4567L244.503 203.694C244.503 204.609 244.961 205.525 245.419 206.44C245.877 206.898 246.793 207.356 247.708 207.356C248.624 207.356 249.54 206.898 249.998 206.44C250.456 205.525 250.914 204.609 250.914 203.694L248.166 65.4567H247.251Z" fill="white"/>
<path d="M163.46 208.271C124.541 208.271 92.9482 176.687 92.9482 137.779C92.9482 98.8716 124.541 67.2876 163.46 67.2876C202.38 67.2876 234.431 98.8716 234.431 137.779C234.431 176.687 202.38 208.271 163.46 208.271ZM163.46 71.865C127.289 71.865 97.527 101.16 97.527 137.779C97.527 174.399 126.831 203.694 163.46 203.694C200.09 203.694 229.394 174.399 229.394 137.779C229.394 101.16 199.632 71.865 163.46 71.865Z" fill="white"/>
<path d="M163.46 117.639C162.545 116.266 160.713 114.435 158.882 113.061C156.592 111.23 154.303 109.399 150.64 108.026C145.146 106.653 140.567 108.026 138.735 108.942C137.362 109.399 133.241 111.23 129.578 116.266C128.662 117.639 126.373 120.843 125.915 125.42C125.915 126.336 124.999 132.286 128.204 137.322C129.12 138.695 130.952 140.984 130.952 141.441C131.867 142.814 133.241 144.188 133.699 144.645C143.772 154.716 153.845 164.786 163.918 174.398C173.992 164.328 184.065 154.258 194.138 144.645C195.054 143.73 195.969 142.814 196.885 141.441C196.885 141.441 198.717 139.153 199.632 137.322C202.38 132.286 201.922 126.336 201.922 125.42C201.464 120.843 199.174 117.639 198.259 116.266C194.596 111.23 190.475 109.399 189.101 108.942C187.27 108.026 182.233 106.653 177.197 108.026C173.534 108.942 170.786 111.23 168.955 113.061C166.208 114.435 164.834 116.266 163.46 117.639Z" fill="white"/>
<path d="M189.101 138.695C188.643 138.695 187.728 138.237 187.27 137.78C186.354 136.864 186.354 135.033 187.27 134.118C188.186 133.202 190.017 130.913 190.017 127.251C190.017 123.59 187.728 120.843 187.27 120.385C186.354 119.47 186.354 117.639 187.27 116.723C188.186 115.808 190.017 115.808 190.933 116.723C192.306 118.097 195.054 121.759 195.054 127.251C195.054 132.744 191.849 136.406 190.933 137.78C190.475 138.695 189.559 138.695 189.101 138.695Z" fill="#4340B5"/>
<path d="M67.3072 212.391C64.1021 212.391 61.3549 211.476 59.5234 209.187C55.8604 205.067 56.7762 199.117 56.7762 198.659C57.2341 193.166 60.897 140.984 61.3549 138.695C62.2707 130.456 64.56 115.808 58.6077 108.484C52.1975 99.7871 50.8239 83.7663 50.8239 83.3085C49.9081 76.9002 51.7396 70.0341 55.8605 65.4567C59.5234 61.337 64.1021 59.0483 68.6808 59.0483C73.2596 59.0483 78.2961 61.337 81.5012 65.4567C85.6221 70.4918 87.4536 76.9002 86.5378 83.3085C86.5378 84.6818 85.1642 100.245 78.754 108.484C73.2596 115.808 75.0911 130.913 76.0068 138.695C76.4647 140.984 80.1276 192.708 80.5855 198.659C80.5855 199.117 81.9591 205.067 78.754 209.187C77.3804 210.56 75.0911 212.391 70.5123 212.391H67.3072C67.7651 212.391 67.7651 212.391 67.3072 212.391ZM69.5966 64.0834C66.3915 64.0834 63.1864 65.9144 60.4392 68.6608C57.2341 72.3227 55.8604 77.8156 56.3183 82.8508C56.3183 83.3085 57.6919 98.4139 63.1864 105.738C70.0545 114.893 68.223 130.456 66.8494 139.61C66.8494 141.441 64.1021 176.23 62.2707 199.117C62.2707 200.49 61.8128 204.152 63.6443 205.983C64.56 206.898 65.9336 207.356 68.223 207.356H71.886C74.1753 207.356 75.5489 206.898 76.4647 205.983C77.8383 204.152 77.3804 200.49 77.3804 199.574C75.5489 176.23 72.8017 140.984 72.8017 139.61C71.4281 130.456 69.5966 114.435 76.4647 105.738C81.9591 98.4139 83.3327 83.3085 83.3327 82.8508C84.2485 77.8156 82.417 72.3227 79.2119 68.6608C76.0068 65.9144 72.3438 64.0834 69.5966 64.0834Z" fill="white"/>
<path d="M77.3805 278.763H56.3184V244.433H77.3805V278.763ZM62.2707 273.728H70.9702V249.926H62.2707V273.728ZM86.5379 264.116H74.1754V258.623H86.5379V264.116ZM90.2008 290.207H83.7906V239.855H90.2008V290.207ZM101.19 292.495H94.7796V238.482H101.19V292.495Z" fill="white"/>
<path d="M131.868 243.975C134.157 245.348 135.988 246.721 136.904 248.552C137.82 250.383 138.736 253.13 138.736 255.419C138.736 258.165 138.278 260.454 136.904 262.285C135.531 264.116 133.699 265.947 131.868 267.32C129.578 268.693 127.289 269.151 124.542 269.151C121.794 269.151 119.505 268.693 117.216 267.32C114.926 265.947 113.095 264.573 112.179 262.285C110.806 259.996 110.348 257.707 110.348 255.419C110.348 252.672 110.806 250.383 112.179 248.552C113.553 246.721 115.384 244.891 117.216 243.517C119.505 242.144 121.794 241.686 124.542 241.686C127.289 241.686 129.578 243.06 131.868 243.975ZM120.421 249.01C119.047 249.468 118.131 250.383 117.674 251.757C117.216 253.13 116.758 254.045 116.758 255.876C116.758 257.249 117.216 258.623 117.674 259.996C118.131 261.369 119.505 262.285 120.421 262.742C121.794 263.2 123.168 263.658 124.542 263.658C125.915 263.658 127.289 263.2 128.663 262.742C130.036 262.285 130.952 261.369 131.41 259.996C132.325 258.623 132.325 257.249 132.325 255.876C132.325 254.503 131.868 253.13 131.41 251.757C130.494 250.383 129.578 249.468 128.663 249.01C127.289 248.552 125.915 248.095 124.542 248.095C123.168 248.095 121.794 248.552 120.421 249.01ZM125 288.376H118.131V273.728H125V288.376ZM155.677 291.58H118.589V286.087H155.677V291.58ZM153.845 277.848H147.435V238.94H154.303V277.848H153.845Z" fill="white"/>
<path d="M212.452 276.475H163.46V270.982H212.452V276.475ZM187.727 258.165C185.896 260.911 183.148 262.742 179.943 264.573C176.738 266.404 172.617 267.32 168.497 267.777L166.207 262.742C169.87 262.285 173.075 261.369 175.822 259.996C178.57 258.623 180.859 257.249 182.233 255.419C183.606 253.588 184.522 251.757 184.522 249.926V248.552H190.474V249.926C190.474 252.672 189.559 255.419 187.727 258.165ZM207.873 250.383H167.581V244.89H207.873V250.383ZM191.39 246.721H184.98V238.482H191.39V246.721ZM191.39 292.953H184.98V273.27H191.39V292.953ZM193.679 254.961C195.053 256.792 197.342 258.165 200.09 259.538C202.837 260.911 206.042 261.827 209.705 262.285L207.416 267.32C203.295 266.862 199.174 265.489 195.969 263.658C192.764 261.827 190.017 259.538 188.185 257.25C186.354 254.961 185.438 251.757 185.438 249.01V247.637H191.39V249.01C191.39 251.299 192.306 253.13 193.679 254.961Z" fill="white"/>
<path d="M234.431 260.911C233.057 263.658 231.683 266.404 229.394 268.235C227.105 270.066 224.357 271.897 221.152 272.813L217.947 267.777C220.694 266.862 222.984 265.489 224.815 264.116C226.647 262.742 228.02 260.454 229.394 258.623C230.768 256.792 230.768 254.045 230.768 251.757V249.468H236.262V251.757C236.262 254.961 235.346 257.707 234.431 260.911ZM248.625 250.841H219.321V245.348H248.625V250.841ZM234.431 289.749H228.02V275.559H234.431V289.749ZM264.65 291.58H228.02V286.087H264.65V291.58ZM237.178 247.637H230.31V239.398H237.178V247.637ZM238.551 257.707C239.467 259.538 240.841 261.369 243.13 263.2C244.962 264.573 247.251 265.947 250.456 266.862L247.251 271.897C244.046 270.982 241.299 269.608 239.009 267.32C236.72 265.489 234.889 262.742 233.973 259.996C232.599 257.249 232.141 254.503 232.141 251.299V249.01H237.636V251.299C237.178 253.588 237.636 255.876 238.551 257.707ZM259.614 259.996H246.335V254.503H259.614V259.996ZM263.277 278.763H256.866V238.482H263.277V278.763Z" fill="white"/>
</svg>
