<svg width="0" height="0" viewBox="0 0 344 343" fill="none" xmlns="http://www.w3.org/2000/svg">
<path d="M266.544 214.366C264.255 214.366 261.966 213.45 260.592 211.619C259.218 209.788 258.303 207.5 258.303 205.669L261.05 65.1427C261.05 63.7695 261.966 62.854 263.339 62.854H269.292C270.665 62.854 271.581 63.7695 271.581 65.1427L274.328 205.669C274.328 207.957 273.412 210.246 272.039 212.077C270.665 213.45 268.834 214.366 266.544 214.366ZM266.087 67.4314L263.339 205.669C263.339 206.584 263.797 207.5 264.255 208.415C264.713 208.873 265.629 209.331 266.544 209.331C267.46 209.331 268.376 208.873 268.834 208.415C269.292 207.5 269.75 206.584 269.75 205.669L267.002 67.4314H266.087Z" fill="#9494E0"/>
<path d="M249.603 214.366C247.314 214.366 245.024 213.45 243.651 211.619C242.277 209.788 241.361 207.5 241.361 205.669L244.109 65.1427C244.109 63.7695 245.024 62.854 246.398 62.854H252.35C253.724 62.854 254.64 63.7695 254.64 65.1427L257.387 205.669C257.387 207.957 256.471 210.246 255.097 212.077C254.182 213.45 251.892 214.366 249.603 214.366ZM249.145 67.4314L246.398 205.669C246.398 206.584 246.856 207.5 247.314 208.415C247.772 208.873 248.687 209.331 249.603 209.331C250.519 209.331 251.434 208.873 251.892 208.415C252.35 207.5 252.808 206.584 252.808 205.669L250.519 67.4314H249.145Z" fill="#9494E0"/>
<path d="M165.813 210.246C126.894 210.246 95.3008 178.662 95.3008 139.754C95.3008 100.846 126.894 69.2625 165.813 69.2625C204.732 69.2625 236.325 100.846 236.325 139.754C236.325 178.662 204.732 210.246 165.813 210.246ZM165.813 74.2976C129.641 74.2976 100.337 103.593 100.337 139.754C100.337 175.916 129.641 205.211 165.813 205.211C201.985 205.211 231.289 175.916 231.289 139.754C231.289 103.593 201.985 74.2976 165.813 74.2976Z" fill="#9494E0"/>
<path d="M165.813 119.614C164.897 118.24 163.066 116.409 161.234 115.036C158.945 113.205 156.656 111.374 152.993 110.001C147.498 108.628 142.919 110.001 141.088 110.917C139.714 111.374 135.594 113.205 131.931 118.24C131.015 119.614 128.725 122.818 128.268 127.395C128.268 128.311 127.352 134.261 130.557 139.297C131.473 140.67 133.304 142.958 133.304 143.416C134.22 144.789 135.594 146.163 136.051 146.62C146.125 156.691 156.198 166.303 166.271 176.373C176.344 166.303 186.417 156.691 196.49 146.62C197.406 145.705 198.322 144.789 199.238 143.416C199.238 143.416 201.069 141.127 201.985 139.297C204.732 134.261 204.274 128.311 204.274 127.395C203.816 122.818 201.527 119.614 200.611 118.24C197.406 113.205 192.827 111.374 191.454 110.917C189.622 110.001 184.586 108.628 179.549 110.001C175.886 110.917 173.597 113.205 171.307 115.036C168.56 116.409 167.187 118.24 165.813 119.614Z" fill="#9494E0"/>
<path d="M191.454 140.67C190.996 140.67 190.08 140.67 189.622 140.212C188.707 139.297 188.707 137.923 189.622 136.55C190.538 135.635 192.37 133.346 192.37 129.684C192.37 126.022 190.08 123.276 189.622 122.818C188.707 121.903 188.707 120.072 189.622 119.156C190.538 118.241 192.37 118.241 193.285 119.156C194.659 120.529 197.406 124.191 197.406 129.684C197.406 135.177 194.659 138.839 193.285 139.754C192.827 140.212 191.912 140.67 191.454 140.67Z" fill="white"/>
<path d="M70.1178 214.366C66.9127 214.366 64.6233 213.45 62.334 211.162C58.671 207.042 59.5867 201.091 59.5867 200.634C60.0446 195.141 63.7076 143.416 64.1655 141.128C65.0812 133.346 67.3705 118.241 61.4182 110.917C55.008 102.22 53.6344 86.1988 53.6344 85.7411C52.7187 79.3327 54.5502 72.9244 58.671 67.8893C62.334 63.7696 66.9127 61.481 71.4914 61.481C76.0701 61.481 80.6488 63.7696 84.3118 67.8893C88.4326 72.9244 90.2641 79.3327 89.3484 85.7411C89.3484 87.1143 87.9748 102.677 81.5646 110.917C76.0701 118.241 77.9016 132.888 78.8173 141.128C79.2752 143.416 82.9382 195.141 83.3961 201.091C83.3961 201.549 84.7697 207.5 81.5646 211.619C80.191 212.993 77.9016 214.824 73.3229 214.824H70.1178C70.5757 214.366 70.1178 214.366 70.1178 214.366ZM71.9493 66.0583C68.7442 66.0583 65.5391 67.8893 62.7918 70.6357C59.5867 74.2977 58.2131 79.7904 58.671 84.8255C58.671 85.2833 60.0446 100.389 65.5391 107.713C72.4071 116.867 70.5757 132.431 69.202 141.585C69.202 142.959 66.4548 178.204 64.6233 201.091C64.6233 202.465 64.1654 206.127 65.9969 207.958C66.9127 208.873 68.2863 209.331 70.5756 209.331H74.2386C76.528 209.331 77.9016 208.873 78.8173 207.958C80.191 206.127 79.7331 202.465 79.7331 201.549C77.9016 178.204 75.1544 143.416 75.1544 141.585C73.7807 132.431 71.9493 116.867 78.8173 107.713C84.3118 100.389 85.6854 85.2833 85.6854 84.8255C86.6012 79.7904 84.7697 74.2977 81.5646 70.6357C78.3595 67.8893 75.1544 66.0583 71.9493 66.0583Z" fill="#9494E0"/>
<path d="M80.1909 280.28H58.6709V245.95H79.733V280.28H80.1909ZM65.0811 275.245H73.7807V251.443H65.0811V275.245ZM88.8904 265.633H76.5279V260.14H88.8904V265.633ZM92.5534 291.724H86.1432V241.372H92.5534V291.724ZM103.542 294.012H97.1321V239.999H103.542V294.012Z" fill="#9494E0"/>
<path d="M134.22 245.492C136.509 246.407 138.341 248.238 139.257 250.069C140.63 251.9 141.088 254.647 141.088 256.935C141.088 259.682 140.63 261.971 139.257 263.802C137.883 265.632 136.052 267.463 134.22 268.837C131.931 270.21 129.641 270.668 126.894 270.668C124.147 270.668 121.858 270.21 119.568 268.837C117.279 267.463 115.447 266.09 114.532 263.802C113.158 261.971 112.7 259.224 112.7 256.935C112.7 254.189 113.158 251.9 114.532 250.069C115.905 248.238 117.737 246.407 119.568 245.492C121.858 244.119 124.147 243.661 126.894 243.661C129.641 243.661 131.931 244.576 134.22 245.492ZM122.773 250.527C121.4 250.985 120.484 251.9 120.026 253.274C119.11 254.647 119.11 255.562 119.11 257.393C119.11 258.766 119.568 260.14 120.026 261.513C120.942 262.886 121.858 263.802 122.773 264.259C124.147 264.717 125.521 265.175 126.894 265.175C128.268 265.175 129.641 264.717 131.015 264.259C132.389 263.802 133.304 262.886 133.762 261.513C134.678 260.14 134.678 258.766 134.678 257.393C134.678 256.02 134.22 254.647 133.762 253.274C132.847 251.9 131.931 250.985 131.015 250.527C129.641 250.069 128.268 249.612 126.894 249.612C125.521 249.612 124.147 250.069 122.773 250.527ZM127.352 289.893H120.484V275.245H127.352V289.893ZM158.029 293.097H120.942V287.604H158.029V293.097ZM156.198 279.365H149.788V240.457H156.198V279.365Z" fill="#9494E0"/>
<path d="M214.805 277.991H165.812V272.499H214.805V277.991ZM190.08 259.682C188.248 262.428 185.501 264.259 182.296 266.09C179.091 267.921 174.97 268.837 170.849 269.294L168.56 264.259C172.223 263.802 175.428 262.886 178.175 261.513C180.922 260.14 183.212 258.766 184.585 256.935C185.959 255.104 186.875 253.274 186.875 251.443V250.069H192.827V251.443C192.827 254.189 191.911 256.935 190.08 259.682ZM210.226 251.9H170.391V246.407H210.226V251.9ZM193.285 248.696H186.875V240.457H193.285V248.696ZM193.285 294.47H186.875V274.787H193.285V294.47ZM196.032 256.935C197.406 258.766 199.695 260.14 202.442 261.513C205.189 262.886 208.395 263.802 212.057 264.259L209.768 269.294C205.647 268.837 201.526 267.463 198.321 265.632C195.116 263.801 192.369 261.513 190.538 259.224C188.706 256.478 187.79 253.731 187.79 250.985V249.612H193.743V250.985C193.743 253.274 194.201 255.104 196.032 256.935Z" fill="#9494E0"/>
<path d="M236.325 262.428C234.952 265.175 233.578 267.921 231.289 269.752C228.999 271.583 226.252 273.414 223.047 274.33L219.842 269.294C222.589 268.379 224.878 267.006 226.71 265.632C228.541 263.801 229.915 261.971 231.289 260.14C232.204 257.851 232.662 255.562 232.662 253.274V250.985H238.157V253.274C238.157 256.478 237.699 259.682 236.325 262.428ZM250.519 252.358H221.215V247.323H250.519V252.358ZM236.325 291.266H229.915V277.076H236.325V291.266ZM266.545 293.097H229.915V287.604H266.545V293.097ZM239.53 249.154H232.662V240.915H239.53V249.154ZM240.904 259.224C241.82 261.055 243.193 262.886 245.483 264.717C247.314 266.09 249.603 267.463 252.809 268.379L249.603 273.414C246.398 272.499 243.651 271.125 241.362 268.837C239.072 267.006 237.241 264.259 236.325 261.513C234.952 258.766 234.494 256.02 234.494 252.816V250.527H239.988V252.816C239.53 255.104 239.988 257.393 240.904 259.224ZM261.966 261.971H249.146V256.478H261.966V261.971ZM265.171 280.28H258.761V240.457H265.171V280.28Z" fill="#9494E0"/>
<path d="M311.416 342.991H32.5725C14.7155 342.991 0.521484 328.343 0.521484 310.949V32.1855C0.521484 14.3336 15.1734 0.143799 32.5725 0.143799H311.416C329.273 0.143799 343.467 14.7914 343.467 32.1855V310.949C343.467 328.343 329.273 342.991 311.416 342.991ZM32.5725 4.72119C17.4627 4.72119 5.1002 17.0801 5.1002 32.1855V310.949C5.1002 326.054 17.4627 338.413 32.5725 338.413H311.416C326.526 338.413 338.888 326.054 338.888 310.949V32.1855C338.888 17.0801 326.526 4.72119 311.416 4.72119H32.5725Z" fill="#9494E0"/>
</svg>
