<svg width="0" height="0" viewBox="0 0 339 339" fill="none" xmlns="http://www.w3.org/2000/svg">
<path d="M308.605 338.269H29.7616C13.2783 338.269 0 324.995 0 308.516V29.753C0 13.2744 13.2783 0 29.7616 0H308.605C325.089 0 338.367 13.2744 338.367 29.753V308.516C338.367 324.537 324.631 338.269 308.605 338.269Z" fill="#4340B5"/>
<path d="M270.144 211.933C267.855 211.933 265.565 211.018 264.192 209.187C262.818 207.356 261.902 205.067 261.902 202.778L264.65 60.8793C264.65 59.5061 265.565 58.5906 266.939 58.5906H272.891C274.265 58.5906 275.181 59.5061 275.181 60.8793L277.928 202.778C277.928 205.067 277.012 207.356 275.638 209.187C274.265 211.018 272.433 211.933 270.144 211.933ZM269.686 63.6257L266.939 203.236C266.939 204.152 267.397 205.067 267.855 205.983C268.313 206.44 269.228 206.898 270.144 206.898C271.06 206.898 271.976 206.44 272.433 205.983C273.349 205.067 273.349 204.152 273.349 203.236L270.602 63.6257H269.686Z" fill="white"/>
<path d="M253.203 211.933C250.913 211.933 248.624 211.018 247.25 209.187C245.877 207.356 244.961 205.067 244.961 202.778L247.708 60.8793C247.708 59.5061 248.624 58.5906 249.998 58.5906H255.95C257.323 58.5906 258.239 59.5061 258.239 60.8793L260.986 202.778C260.986 205.067 260.071 207.356 258.697 209.187C257.323 211.018 255.034 211.933 253.203 211.933ZM252.287 63.6257L249.54 203.236C249.54 204.152 249.998 205.067 250.455 205.983C250.913 206.44 251.829 206.898 252.745 206.898C253.66 206.898 254.576 206.44 255.034 205.983C255.95 205.067 255.95 204.152 255.95 203.236L253.203 63.6257H252.287Z" fill="white"/>
<path d="M168.955 207.814C130.035 207.814 98.4424 176.229 98.4424 137.322C98.4424 98.4138 130.035 66.8298 168.955 66.8298C207.874 66.8298 239.467 98.4138 239.467 137.322C239.467 176.229 207.874 207.814 168.955 207.814ZM168.955 71.865C132.783 71.865 103.479 101.16 103.479 137.322C103.479 173.483 132.783 202.778 168.955 202.778C205.126 202.778 234.43 173.483 234.43 137.322C234.43 101.16 205.126 71.865 168.955 71.865Z" fill="white"/>
<path d="M72.8013 211.933C69.5962 211.933 67.3069 211.018 65.0175 208.729C61.3546 204.609 62.2704 198.659 62.2704 198.201C62.7282 192.708 66.3912 140.984 66.8491 138.695C67.7648 130.913 70.0541 115.808 64.1018 108.484C57.6916 99.7871 56.318 83.7662 56.318 83.3085C55.4023 76.9001 57.2337 70.4918 61.3546 65.4567C65.0175 61.337 69.5963 59.0483 74.175 59.0483C78.7537 59.0483 83.3324 61.337 86.9954 65.4567C91.1162 70.4918 92.9477 76.9001 92.032 83.3085C92.032 84.6817 90.6583 100.245 84.2481 108.484C78.7537 115.808 80.5852 130.456 81.5009 138.695C81.9588 140.984 85.6218 192.708 86.0797 198.659C86.0797 199.117 87.4532 205.067 84.2481 209.187C82.8745 210.56 80.5852 212.391 76.0065 212.391H72.8013C73.7171 211.933 73.2592 211.933 72.8013 211.933ZM75.0907 63.6257C71.8856 63.6257 68.6805 65.4567 65.9333 68.2031C62.7282 71.865 61.3546 77.3578 61.8125 82.3929C61.8125 82.8507 63.1861 97.9561 68.6805 105.28C75.5486 114.435 73.2593 129.998 72.3435 139.153C72.3435 140.984 69.5963 175.772 67.7648 198.659C67.7648 200.032 67.3069 203.694 69.1384 205.525C70.0542 206.44 71.4278 206.898 73.7171 206.898H77.3801C79.6694 206.898 81.043 206.44 81.9588 205.525C83.3324 203.694 82.8746 200.032 82.8746 199.116C81.0431 175.772 78.2959 140.984 78.2959 139.153C76.9222 129.998 75.0907 114.435 81.9588 105.28C87.4532 97.9561 88.8268 82.8507 88.8268 82.3929C89.7426 77.3578 87.9111 71.865 84.706 68.2031C81.5009 65.4567 78.2958 63.6257 75.0907 63.6257Z" fill="white"/>
<path d="M168.497 173.941C189.485 173.941 206.5 156.931 206.5 135.949C206.5 114.966 189.485 97.9563 168.497 97.9563C147.508 97.9563 130.493 114.966 130.493 135.949C130.493 156.931 147.508 173.941 168.497 173.941Z" fill="white"/>
<path d="M168.038 157.005C166.665 157.005 165.749 156.089 165.749 154.716V119.47C165.749 118.097 166.665 117.181 168.038 117.181C169.412 117.181 170.328 118.097 170.328 119.47V154.716C170.328 156.089 169.412 157.005 168.038 157.005Z" fill="#4340B5"/>
<path d="M185.896 139.153H150.64C149.266 139.153 148.351 138.237 148.351 136.864C148.351 135.491 149.266 134.575 150.64 134.575H185.896C187.27 134.575 188.185 135.491 188.185 136.864C188.185 138.237 187.27 139.153 185.896 139.153Z" fill="#4340B5"/>
<path d="M111.263 275.101H63.1865V269.609H111.263V275.101ZM86.9958 256.792C85.1643 259.08 82.875 261.369 79.212 263.2C75.5491 265.031 72.344 265.947 67.7652 266.404L65.4759 261.369C69.1389 260.911 72.3439 259.996 75.0911 258.623C77.8384 257.249 80.1278 255.876 81.5014 254.045C82.875 252.214 83.7907 250.383 83.7907 248.552V247.179H89.2852V248.552C89.7431 251.299 88.8273 254.045 86.9958 256.792ZM106.684 249.468H67.3073V244.433H106.684V249.468ZM90.2009 245.806H83.7907V238.024H90.2009V245.806ZM90.2009 290.664H83.7907V271.439H90.2009V290.664ZM92.4903 254.045C93.8639 255.876 96.1533 257.249 98.9005 258.623C101.648 259.996 104.853 260.911 108.516 261.369L106.226 266.404C102.106 265.947 98.4426 264.573 94.7796 263.2C91.5745 261.369 88.8273 259.538 86.9958 256.792C85.1643 254.045 84.2486 251.757 84.2486 248.552V247.179H90.2009V248.552C90.2009 250.383 91.1167 252.214 92.4903 254.045Z" fill="white"/>
<path d="M141.483 258.623C139.651 263.2 137.362 267.32 133.699 271.439C130.036 275.559 125.457 278.763 119.963 281.51L116.3 276.475C120.879 274.186 124.999 271.439 128.204 268.235C131.41 265.031 133.699 261.827 135.073 257.707C136.446 253.588 137.362 249.468 137.362 244.891V243.517H143.772C143.772 248.552 142.856 253.588 141.483 258.623ZM140.567 248.552H118.589V243.517H140.567V248.552ZM157.966 290.664H151.556V238.024H157.966V290.664ZM165.75 264.116H156.135V258.623H165.75V264.116Z" fill="white"/>
<path d="M217.947 275.101H169.87V269.609H217.947V275.101ZM193.679 256.792C191.848 259.08 189.559 261.369 185.896 263.2C182.233 265.031 179.028 265.947 174.449 266.404L172.159 261.369C175.822 260.911 179.028 259.996 181.775 258.623C184.522 257.249 186.811 255.876 188.185 254.045C189.559 252.214 190.474 250.383 190.474 248.552V247.179H195.969V248.552C195.969 251.299 195.511 254.045 193.679 256.792ZM213.368 249.468H173.991V244.433H213.368V249.468ZM196.885 245.806H190.474V238.024H196.885V245.806ZM196.885 290.664H190.474V271.439H196.885V290.664ZM199.174 254.045C200.547 255.876 202.837 257.249 205.584 258.623C208.331 259.996 211.536 260.911 215.199 261.369L212.91 266.404C208.789 265.947 205.126 264.573 201.463 263.2C198.258 261.369 195.511 259.538 193.679 256.792C191.848 254.045 190.932 251.757 190.932 248.552V247.179H196.885V248.552C196.885 250.383 197.8 252.214 199.174 254.045Z" fill="white"/>
<path d="M239.009 259.538C237.635 262.285 236.262 264.573 233.972 266.862C231.683 269.151 228.936 270.524 225.73 271.439L222.525 266.404C225.273 265.489 227.562 264.116 229.393 262.742C231.225 261.369 232.599 259.08 233.514 257.25C234.43 255.419 234.888 253.13 234.888 250.841V248.095H240.382V250.383C240.84 253.588 240.382 256.792 239.009 259.538ZM253.203 249.468H224.815V244.433H253.203V249.468ZM239.009 287.918H232.599V274.186H239.009V287.918ZM268.77 289.749H232.599V284.256H268.77V289.749ZM242.214 246.264H235.804V238.024H242.214V246.264ZM243.587 256.334C244.503 258.165 245.877 259.996 247.708 261.369C249.54 262.742 251.829 264.116 254.576 265.031L251.371 270.066C248.166 269.151 245.419 267.777 243.13 265.489C240.84 263.658 239.009 261.369 238.093 258.623C236.719 255.876 236.262 253.13 236.262 249.926V248.095H241.756V250.383C241.756 252.672 242.672 254.503 243.587 256.334ZM264.192 259.08H251.371V254.045H264.192V259.08ZM267.397 277.39H260.987V238.024H267.397V277.39Z" fill="white"/>
</svg>
