<svg width="0" height="0" viewBox="0 0 345 345" fill="none" xmlns="http://www.w3.org/2000/svg">
<path d="M273.807 215.595C271.518 215.595 269.228 214.68 267.855 212.849C266.481 211.018 265.565 208.729 265.565 206.44L268.313 64.0834C268.313 62.7102 269.228 61.7947 270.602 61.7947H277.012C278.386 61.7947 279.302 62.7102 279.302 64.0834L282.049 206.44C282.049 208.729 281.133 211.018 279.759 212.849C278.386 214.68 276.096 215.595 273.807 215.595ZM273.349 67.2875L270.602 207.356C270.602 208.271 271.06 209.187 271.518 210.102C271.976 210.56 272.891 211.018 273.807 211.018C274.723 211.018 275.639 210.56 276.096 210.102C277.012 209.187 277.012 208.271 277.012 207.356L274.265 67.2875H273.349Z" fill="#9494E0"/>
<path d="M256.866 215.595C254.576 215.595 252.287 214.68 250.913 212.849C249.54 211.018 248.624 208.729 248.624 206.44L251.371 64.0834C251.371 62.7102 252.287 61.7947 253.661 61.7947H260.071C261.444 61.7947 262.36 62.7102 262.36 64.0834L265.107 206.44C265.107 208.729 264.192 211.018 262.818 212.849C260.987 214.68 259.155 215.595 256.866 215.595ZM256.408 67.2875L253.661 207.356C253.661 208.271 254.118 209.187 254.576 210.102C255.034 210.56 255.95 211.018 256.866 211.018C257.781 211.018 258.697 210.56 259.155 210.102C260.071 209.187 260.071 208.271 260.071 207.356L257.324 67.2875H256.408Z" fill="#9494E0"/>
<path d="M172.618 211.476C133.699 211.476 102.105 179.892 102.105 140.984C102.105 102.076 133.699 70.4919 172.618 70.4919C211.537 70.4919 243.13 102.076 243.13 140.984C243.13 179.892 211.537 211.476 172.618 211.476ZM172.618 75.0693C136.446 75.0693 106.684 104.365 106.684 140.984C106.684 177.145 135.988 206.898 172.618 206.898C208.79 206.898 238.551 177.603 238.551 140.984C238.093 104.822 208.79 75.0693 172.618 75.0693Z" fill="#9494E0"/>
<path d="M76.0064 215.595C72.8013 215.595 70.0541 214.68 68.2226 212.391C64.5597 208.271 65.4754 202.321 65.4754 201.863C65.9332 196.37 69.5962 144.188 70.0541 141.899C70.9698 133.66 73.2592 119.012 67.3069 111.688C60.8967 102.991 59.5231 86.9704 59.5231 86.5126C58.6074 80.1043 60.4388 73.2382 64.5596 68.6608C68.2226 64.5411 72.8013 62.2524 77.3801 62.2524C81.9588 62.2524 86.5375 64.5411 90.2005 68.6608C94.3213 73.6959 96.1528 80.1043 95.237 86.5126C95.237 87.8859 93.8634 103.449 87.4532 111.688C81.9588 119.012 83.7903 134.117 84.706 141.899C85.1639 144.188 88.8269 195.912 89.2847 201.863C89.2847 202.321 90.6583 208.271 87.4532 212.391C86.0796 213.764 83.7902 215.595 79.2115 215.595H76.0064C76.4643 215.595 76.9222 215.595 76.0064 215.595ZM78.2958 67.2875C75.0907 67.2875 71.8856 69.1185 69.1384 71.8649C65.9333 75.5268 64.5597 81.0197 65.0175 86.0549C65.0175 86.5126 66.3912 101.618 71.8856 108.942C78.7537 118.097 76.9222 133.66 75.5486 142.815C75.5486 144.188 72.8014 179.434 70.9699 202.321C70.9699 203.694 70.512 207.356 72.3434 209.187C73.2592 210.102 74.6328 210.56 76.9222 210.56H80.5851C82.8745 210.56 84.2481 210.102 85.1639 209.187C86.5375 207.356 86.0796 203.694 86.0796 202.778C84.2481 179.434 81.5009 144.188 81.5009 142.815C80.1273 133.66 78.2958 117.639 85.1639 108.942C90.6583 101.618 92.0319 86.5126 92.0319 86.0549C92.9477 81.0197 91.1162 75.5268 87.9111 71.8649C84.706 69.1185 81.5009 67.2875 78.2958 67.2875Z" fill="#9494E0"/>
<path d="M172.16 177.603C193.148 177.603 210.163 160.593 210.163 139.611C210.163 118.628 193.148 101.618 172.16 101.618C151.171 101.618 134.156 118.628 134.156 139.611C134.156 160.593 151.171 177.603 172.16 177.603Z" fill="#9494E0"/>
<path d="M171.701 160.667C170.328 160.667 169.412 159.751 169.412 158.378V122.674C169.412 121.301 170.328 120.385 171.701 120.385C173.075 120.385 173.991 121.301 173.991 122.674V158.378C173.991 159.751 173.075 160.667 171.701 160.667Z" fill="white"/>
<path d="M189.101 142.815H153.387C152.013 142.815 151.098 141.899 151.098 140.526C151.098 139.153 152.013 138.237 153.387 138.237H189.101C190.475 138.237 191.39 139.153 191.39 140.526C191.39 141.899 190.475 142.815 189.101 142.815Z" fill="white"/>
<path d="M114.468 279.221H65.9336V273.728H114.468V279.221ZM90.2008 260.911C88.3693 263.2 86.08 265.489 82.417 267.32C78.754 269.151 75.5489 270.066 70.9702 270.524L68.6809 265.489C72.3438 265.031 75.5489 264.116 78.2961 262.742C81.0433 261.369 83.3327 259.996 84.7063 258.165C86.08 256.334 86.9957 254.503 86.9957 252.672V251.299H92.948V252.672C92.948 255.418 92.0323 258.165 90.2008 260.911ZM109.889 253.13H70.5123V248.095H109.889V253.13ZM93.4059 249.926H86.9957V241.686H93.4059V249.926ZM93.4059 294.784H86.9957V275.559H93.4059V294.784ZM95.6952 258.165C97.0688 259.996 99.3582 261.369 102.105 262.742C104.853 264.116 108.058 265.031 111.721 265.489L109.431 270.524C105.311 270.066 101.648 268.693 97.9846 267.32C94.7795 265.489 92.0323 263.658 90.2008 260.911C88.3693 258.165 87.4535 255.876 87.4535 252.672V251.299H93.4059V252.672C93.8637 254.503 94.3216 256.334 95.6952 258.165Z" fill="#9494E0"/>
<path d="M144.688 262.285C142.856 266.862 140.567 270.982 136.904 275.101C133.241 279.221 128.662 282.425 123.168 285.172L119.505 280.136C124.084 277.848 128.204 275.101 131.41 271.897C134.615 268.693 136.904 265.489 138.735 261.369C140.567 257.249 141.025 253.13 141.025 248.552V247.179H147.435C147.435 252.672 146.519 257.707 144.688 262.285ZM144.23 252.672H122.252V247.179H144.23V252.672ZM161.171 294.784H154.761V241.686H161.171V294.784ZM168.955 267.777H159.798V262.285H169.413V267.777H168.955Z" fill="#9494E0"/>
<path d="M221.61 279.221H173.075V273.728H221.61V279.221ZM196.885 260.911C195.053 263.2 192.764 265.489 189.101 267.32C185.438 269.151 182.233 270.066 177.654 270.524L175.365 265.489C179.028 265.031 182.233 264.116 184.98 262.742C187.727 261.369 190.016 259.996 191.39 258.165C192.764 256.334 193.679 254.503 193.679 252.672V251.299H199.632V252.672C199.632 255.418 198.716 258.165 196.885 260.911ZM217.031 253.13H177.654V248.095H217.031V253.13ZM200.547 249.926H194.137V241.686H200.547V249.926ZM200.547 294.784H194.137V275.559H200.547V294.784ZM202.837 258.165C204.21 259.996 206.5 261.369 209.247 262.742C211.994 264.116 215.199 265.031 218.862 265.489L216.573 270.524C212.452 270.066 208.789 268.693 205.126 267.32C201.921 265.489 199.174 263.658 197.342 260.911C195.511 258.165 194.595 255.876 194.595 252.672V251.299H200.547V252.672C200.547 254.503 201.463 256.334 202.837 258.165Z" fill="#9494E0"/>
<path d="M242.672 263.658C241.298 266.404 239.925 268.693 237.635 270.982C235.346 273.27 232.599 274.643 229.394 275.559L226.188 270.524C228.936 269.608 231.225 268.235 233.057 266.862C234.888 265.031 236.262 263.2 237.177 261.369C238.093 259.08 238.551 257.249 238.551 254.961V252.672H244.045V254.961C244.503 257.707 244.045 260.454 242.672 263.658ZM256.866 253.588H228.02V248.552H256.866V253.588ZM242.672 292.038H236.262V277.848H242.672V292.038ZM272.434 293.869H236.262V288.376H272.434V293.869ZM245.877 250.383H239.467V242.144H245.877V250.383ZM247.251 260.454C248.166 262.285 249.54 264.116 251.829 265.946C254.119 267.777 255.95 268.693 258.697 269.608L255.492 274.643C252.287 273.728 249.54 272.355 247.251 270.066C244.961 268.235 243.13 265.946 242.214 263.2C241.298 260.454 240.383 257.707 240.383 254.503V252.214H245.877V254.503C245.877 256.334 246.335 258.623 247.251 260.454ZM267.855 262.742H255.034V257.249H267.855V262.742ZM271.06 281.51H264.65V241.686H271.06V281.51Z" fill="#9494E0"/>
<path d="M312.268 344.678H32.5089C14.6519 344.678 0 330.03 0 312.178V32.4995C0 14.6477 14.6519 0 32.5089 0H312.268C330.125 0 344.777 14.6477 344.777 32.4995V312.178C344.777 330.488 330.125 344.678 312.268 344.678ZM32.5089 5.49286C17.3991 5.49286 5.03658 17.8518 5.03658 32.9572V312.636C5.03658 327.741 17.3991 340.1 32.5089 340.1H312.268C327.378 340.1 339.741 327.741 339.741 312.636V32.9572C339.741 17.8518 327.378 5.49286 312.268 5.49286H32.5089Z" fill="#9494E0"/>
</svg>
