<svg width="100%" height="100%" viewBox="0 0 50 50" fill="none" xmlns="http://www.w3.org/2000/svg">
<g clip-path="url(#clip0_237_933)">
<path d="M49.9996 25.554C49.9996 23.5043 49.8294 22.0086 49.461 20.4575H25.5098V29.7087H39.5686C39.2853 32.0077 37.7547 35.47 34.3532 37.7966L34.3056 38.1063L41.8785 43.8392L42.4032 43.8904C47.2217 39.5417 49.9996 33.1433 49.9996 25.554Z" fill="#4285F4"/>
<path d="M25.5099 49.9285C32.3975 49.9285 38.1798 47.7126 42.4033 43.8903L34.3534 37.7965C32.1992 39.2645 29.308 40.2894 25.5099 40.2894C18.7639 40.2894 13.0383 35.9408 10.9973 29.9303L10.6981 29.9551L2.82368 35.9103L2.7207 36.19C6.91567 44.3333 15.5325 49.9285 25.5099 49.9285Z" fill="#34A853"/>
<path d="M10.9976 29.9303C10.4591 28.3792 10.1474 26.7172 10.1474 25C10.1474 23.2826 10.4591 21.6207 10.9693 20.0697L10.955 19.7393L2.98189 13.6885L2.72102 13.8097C0.992074 17.189 0 20.9837 0 25C0 29.0163 0.992074 32.8108 2.72102 36.1901L10.9976 29.9303Z" fill="#FBBC05"/>
<path d="M25.5099 9.7104C30.3001 9.7104 33.5313 11.7324 35.3738 13.4221L42.5733 6.55284C38.1516 2.53658 32.3975 0.0714111 25.5099 0.0714111C15.5325 0.0714111 6.91567 5.66645 2.7207 13.8097L10.969 20.0696C13.0383 14.0591 18.7639 9.7104 25.5099 9.7104Z" fill="#EB4335"/>
</g>
<defs>
<clipPath id="clip0_237_933">
<rect width="50" height="50" fill="white"/>
</clipPath>
</defs>
</svg>
