<svg width="0" height="0" viewBox="0 0 254 254" fill="none" xmlns="http://www.w3.org/2000/svg">
<path d="M126.8 248.6C194.068 248.6 248.6 194.068 248.6 126.8C248.6 59.5317 194.068 5 126.8 5C59.5318 5 5 59.5317 5 126.8C5 194.068 59.5318 248.6 126.8 248.6Z" stroke="#ABAFC4" stroke-width="8.8741" stroke-miterlimit="10" stroke-linecap="round" stroke-linejoin="round"/>
<path d="M201.801 104.2C200.801 95.9003 197.201 90.2003 195.401 87.7003C189.301 79.0003 181.101 75.6003 179.101 74.8003C175.501 73.4003 167.201 70.9003 157.701 73.5003C152.201 75.0003 148.801 77.6003 142.701 82.1003C139.701 84.4003 135.901 87.5003 131.801 91.7003C128.101 95.5003 128.201 101.6 132.101 105.2L137.901 110.7C141.901 114.4 141.901 120.8 137.901 124.5L132.701 129.4C128.701 133.1 128.701 139.5 132.701 143.2L137.901 148.1C141.901 151.8 141.901 158.2 137.901 161.9L132.701 166.8C128.701 170.5 128.701 176.9 132.701 180.6C136.401 184.1 142.201 184 145.801 180.4C159.801 166.5 173.801 152.5 187.901 138.6C189.201 137.2 191.001 135.2 193.001 132.6C193.201 132.3 196.301 128.3 198.001 125.5C203.201 116.6 202.001 106 201.801 104.2ZM183.001 127.3C182.001 128.3 180.801 128.8 179.501 128.8C178.301 128.8 177.101 128.4 176.201 127.5C174.301 125.6 174.201 122.6 176.001 120.7C177.501 119.2 180.801 115 180.901 108.7C181.001 102.1 177.201 97.6003 176.001 96.4003C174.201 94.5003 174.201 91.4003 176.201 89.6003C178.201 87.8003 181.201 87.8003 183.001 89.8003C185.301 92.2003 190.701 98.9003 190.601 108.9C190.501 118.4 185.301 124.9 183.001 127.3Z" fill="#ABAFC4"/>
<path d="M115.301 166.7L120.501 161.8C124.501 158.1 124.501 151.7 120.501 148L115.301 143.1C111.301 139.4 111.301 133 115.301 129.3L120.501 124.4C124.501 120.7 124.501 114.3 120.501 110.6L114.701 105.1C114.001 104.4 111.701 101.9 111.701 98.4001C111.701 95.0001 114.101 92.0001 114.401 91.6001C115.901 89.8001 117.301 89.1001 117.101 87.9001C117.001 87.3001 116.601 87.0001 114.901 85.5001C113.701 84.5001 112.801 83.6001 112.301 83.1001C111.901 82.7001 111.401 82.3001 111.001 82.0001C107.101 78.8001 102.601 75.2001 96.0008 73.4001C86.5008 70.7001 78.2008 73.3001 74.6008 74.7001C72.5008 75.5001 64.4009 78.9001 58.3009 87.6001C56.6009 90.1001 53.0009 95.8001 51.9009 104.1C51.7009 105.9 50.5009 116.5 55.7009 125.3C57.4009 128.1 60.5009 132.1 60.7009 132.4C62.7009 134.9 64.5009 137 65.8009 138.4C82.9009 155.3 99.9008 172.3 117.001 189.2C117.201 189.4 117.401 189.6 117.701 189.7C119.301 190.4 121.101 190.2 122.101 189.2C123.801 187.5 122.401 184.6 122.301 184.2C121.501 182.6 120.401 182.1 118.801 180.9C115.901 178.8 112.001 174.6 112.701 170.9C113.101 168.9 114.401 167.4 115.301 166.7Z" fill="#ABAFC4"/>
</svg>
