<svg width="0" height="0" viewBox="0 0 254 254" fill="none" xmlns="http://www.w3.org/2000/svg">
<path d="M126.8 248.6C194.068 248.6 248.6 194.068 248.6 126.8C248.6 59.5317 194.068 5 126.8 5C59.5317 5 5 59.5317 5 126.8C5 194.068 59.5317 248.6 126.8 248.6Z" stroke="#FF7473" stroke-width="8.8741" stroke-miterlimit="10" stroke-linecap="round" stroke-linejoin="round"/>
<path d="M194.5 104.6C193.5 96.2001 189.9 90.3001 188.1 87.8001C182 78.9001 173.8 75.5001 171.8 74.7001C168.2 73.3001 159.9 70.7001 150.4 73.4001C143.8 75.3001 139.3 78.9001 135.4 82.1001C131.6 85.3001 128.8 88.4001 126.9 90.8001H126.7C124.8 88.4001 122 85.3001 118.2 82.1001C114.3 78.9001 109.8 75.2001 103.2 73.4001C93.7001 70.7001 85.4001 73.3001 81.8001 74.7001C79.7001 75.5001 71.6001 78.9001 65.5001 87.8001C63.8001 90.3001 60.2001 96.2001 59.1001 104.6C58.9001 106.4 57.7001 117.2 62.9001 126.1C64.6001 129 67.7001 133 67.9001 133.3C69.9001 135.9 71.7001 137.9 73.0001 139.3C87.2001 153.6 101.4 167.9 115.6 182.2C121.8 188.4 131.7 188.4 137.9 182.2C152.1 167.9 166.3 153.6 180.5 139.3C181.8 137.9 183.6 135.8 185.6 133.3C185.8 133 188.9 129 190.6 126.1C195.9 117.2 194.7 106.5 194.5 104.6ZM175.8 127.3C174.8 128.3 173.6 128.8 172.3 128.8C171.1 128.8 169.9 128.4 169 127.5C167.1 125.6 167 122.6 168.8 120.7C170.3 119.2 173.6 115 173.7 108.7C173.8 102.1 170 97.6001 168.8 96.4001C167 94.5001 167 91.4001 169 89.6001C170.9 87.7001 174 87.8001 175.8 89.8001C178.1 92.2001 183.5 98.9001 183.4 108.9C183.2 118.4 178 124.9 175.8 127.3Z" fill="#FF7473"/>
</svg>
