<svg width="0" height="0" viewBox="0 0 343 343" fill="none" xmlns="http://www.w3.org/2000/svg">
<path d="M266.023 214.222C263.734 214.222 261.444 213.306 260.071 211.475C258.697 209.645 257.781 207.356 257.781 205.525L260.528 64.9989C260.528 63.6257 261.444 62.7102 262.818 62.7102H268.77C270.144 62.7102 271.06 63.6257 271.06 64.9989L273.807 205.525C273.807 207.814 272.891 210.102 271.517 211.933C270.144 213.306 268.312 214.222 266.023 214.222ZM265.565 67.2876L262.818 205.525C262.818 206.44 263.276 207.356 263.734 208.271C264.191 208.729 265.107 209.187 266.023 209.187C266.939 209.187 267.854 208.729 268.312 208.271C268.77 207.356 269.228 206.44 269.228 205.525L266.481 67.2876H265.565Z" fill="#9494E0"/>
<path d="M249.082 214.222C246.792 214.222 244.503 213.306 243.129 211.475C241.756 209.645 240.84 207.356 240.84 205.525L243.587 64.9989C243.587 63.6257 244.503 62.7102 245.876 62.7102H251.829C253.202 62.7102 254.118 63.6257 254.118 64.9989L256.865 205.525C256.865 207.814 255.95 210.102 254.576 211.933C253.66 213.306 251.371 214.222 249.082 214.222ZM248.624 67.2876L245.876 205.525C245.876 206.44 246.334 207.356 246.792 208.271C247.25 208.729 248.166 209.187 249.082 209.187C249.997 209.187 250.913 208.729 251.371 208.271C251.829 207.356 252.287 206.44 252.287 205.525L249.997 67.2876H248.624Z" fill="#9494E0"/>
<path d="M165.291 210.102C126.372 210.102 94.7793 178.518 94.7793 139.61C94.7793 100.703 126.372 69.1187 165.291 69.1187C204.211 69.1187 235.804 100.703 235.804 139.61C235.804 178.518 204.211 210.102 165.291 210.102ZM165.291 74.1538C129.12 74.1538 99.8159 103.449 99.8159 139.61C99.8159 175.772 129.12 205.067 165.291 205.067C201.463 205.067 230.767 175.772 230.767 139.61C230.767 103.449 201.463 74.1538 165.291 74.1538Z" fill="#9494E0"/>
<path d="M165.292 119.47C164.376 118.097 162.544 116.266 160.713 114.892C158.423 113.062 156.134 111.231 152.471 109.857C146.977 108.484 142.398 109.857 140.567 110.773C139.193 111.231 135.072 113.062 131.409 118.097C130.493 119.47 128.204 122.674 127.746 127.251C127.746 128.167 126.83 134.118 130.035 139.153C130.951 140.526 132.783 142.815 132.783 143.272C133.698 144.646 135.072 146.019 135.53 146.476C145.603 156.547 155.676 166.159 165.749 176.229C175.823 166.159 185.896 156.547 195.969 146.476C196.885 145.561 197.8 144.646 198.716 143.272C198.716 143.272 200.548 140.984 201.463 139.153C204.211 134.118 203.753 128.167 203.753 127.251C203.295 122.674 201.006 119.47 200.09 118.097C196.885 113.062 192.306 111.231 190.932 110.773C189.101 109.857 184.064 108.484 179.028 109.857C175.365 110.773 173.075 113.062 170.786 114.892C168.039 116.266 166.665 118.097 165.292 119.47Z" fill="#9494E0"/>
<path d="M190.932 140.526C190.474 140.526 189.559 140.526 189.101 140.068C188.185 139.153 188.185 137.78 189.101 136.406C190.017 135.491 191.848 133.202 191.848 129.54C191.848 125.878 189.559 123.132 189.101 122.674C188.185 121.759 188.185 119.928 189.101 119.012C190.017 118.097 191.848 118.097 192.764 119.012C194.137 120.385 196.885 124.047 196.885 129.54C196.885 135.033 194.137 138.695 192.764 139.61C192.306 140.068 191.39 140.526 190.932 140.526Z" fill="white"/>
<path d="M69.5963 214.222C66.3912 214.222 64.1018 213.307 61.8125 211.018C58.1495 206.898 59.0653 200.948 59.0653 200.49C59.5231 194.997 63.1861 143.272 63.644 140.984C64.5597 133.202 66.8491 118.097 60.8967 110.773C54.4865 102.076 53.1129 86.055 53.1129 85.5973C52.1972 79.1889 54.0287 72.7806 58.1495 67.7455C61.8125 63.6258 66.3912 61.3372 70.9699 61.3372C75.5486 61.3372 80.1273 63.6258 83.7903 67.7455C87.9111 72.7806 89.7426 79.1889 88.8269 85.5973C88.8269 86.9705 87.4533 102.534 81.0431 110.773C75.5486 118.097 77.3801 132.744 78.2959 140.984C78.7537 143.272 82.4167 194.997 82.8746 200.948C82.8746 201.405 84.2482 207.356 81.0431 211.476C79.6695 212.849 77.3801 214.68 72.8014 214.68H69.5963C70.0542 214.222 69.5963 214.222 69.5963 214.222ZM71.4278 65.9146C68.2227 65.9146 65.0176 67.7455 62.2704 70.4919C59.0653 74.1539 57.6916 79.6466 58.1495 84.6817C58.1495 85.1395 59.5231 100.245 65.0176 107.569C71.8857 116.723 70.0542 132.287 68.6806 141.442C68.6806 142.815 65.9333 178.061 64.1018 200.948C64.1018 202.321 63.644 205.983 65.4754 207.814C66.3912 208.729 67.7648 209.187 70.0542 209.187H73.7171C76.0065 209.187 77.3801 208.729 78.2959 207.814C79.6695 205.983 79.2116 202.321 79.2116 201.405C77.3801 178.061 74.6329 143.272 74.6329 141.442C73.2593 132.287 71.4278 116.723 78.2959 107.569C83.7903 100.245 85.1639 85.1395 85.1639 84.6817C86.0797 79.6466 84.2482 74.1539 81.0431 70.4919C77.838 67.7455 74.6329 65.9146 71.4278 65.9146Z" fill="#9494E0"/>
<path d="M79.6694 280.136H58.1494V245.806H79.2115V280.136H79.6694ZM64.5596 275.101H73.2592V251.299H64.5596V275.101ZM88.3689 265.489H76.0064V259.996H88.3689V265.489ZM92.0319 291.58H85.6217V241.229H92.0319V291.58ZM103.021 293.869H96.6106V239.855H103.021V293.869Z" fill="#9494E0"/>
<path d="M133.699 245.348C135.988 246.264 137.819 248.095 138.735 249.926C140.109 251.757 140.567 254.503 140.567 256.792C140.567 259.538 140.109 261.827 138.735 263.658C137.362 265.489 135.53 267.32 133.699 268.693C131.409 270.066 129.12 270.524 126.373 270.524C123.625 270.524 121.336 270.066 119.047 268.693C116.757 267.32 114.926 265.947 114.01 263.658C112.637 261.827 112.179 259.08 112.179 256.792C112.179 254.045 112.637 251.757 114.01 249.926C115.384 248.095 117.215 246.264 119.047 245.348C121.336 243.975 123.625 243.517 126.373 243.517C129.12 243.517 131.409 244.433 133.699 245.348ZM122.252 250.383C120.878 250.841 119.963 251.757 119.505 253.13C118.589 254.503 118.589 255.419 118.589 257.25C118.589 258.623 119.047 259.996 119.505 261.369C120.42 262.742 121.336 263.658 122.252 264.116C123.625 264.573 124.999 265.031 126.373 265.031C127.746 265.031 129.12 264.573 130.494 264.116C131.867 263.658 132.783 262.742 133.241 261.369C134.157 259.996 134.157 258.623 134.157 257.25C134.157 255.876 133.699 254.503 133.241 253.13C132.325 251.757 131.409 250.841 130.494 250.383C129.12 249.926 127.746 249.468 126.373 249.468C124.999 249.468 123.625 249.926 122.252 250.383ZM126.831 289.749H119.963V275.101H126.831V289.749ZM157.508 292.953H120.42V287.46H157.508V292.953ZM155.676 279.221H149.266V240.313H155.676V279.221Z" fill="#9494E0"/>
<path d="M214.283 277.848H165.291V272.355H214.283V277.848ZM189.558 259.538C187.727 262.285 184.979 264.116 181.774 265.947C178.569 267.777 174.448 268.693 170.328 269.151L168.038 264.116C171.701 263.658 174.906 262.742 177.654 261.369C180.401 259.996 182.69 258.623 184.064 256.792C185.437 254.961 186.353 253.13 186.353 251.299V249.926H192.305V251.299C192.305 254.045 191.39 256.792 189.558 259.538ZM209.705 251.757H169.87V246.264H209.705V251.757ZM192.763 248.552H186.353V240.313H192.763V248.552ZM192.763 294.326H186.353V274.644H192.763V294.326ZM195.511 256.792C196.884 258.623 199.173 259.996 201.921 261.369C204.668 262.742 207.873 263.658 211.536 264.116L209.247 269.151C205.126 268.693 201.005 267.32 197.8 265.489C194.595 263.658 191.848 261.369 190.016 259.08C188.185 256.334 187.269 253.588 187.269 250.841V249.468H193.221V250.841C193.221 253.13 193.679 254.961 195.511 256.792Z" fill="#9494E0"/>
<path d="M235.804 262.285C234.43 265.031 233.056 267.778 230.767 269.609C228.478 271.439 225.731 273.27 222.525 274.186L219.32 269.151C222.068 268.235 224.357 266.862 226.188 265.489C228.02 263.658 229.393 261.827 230.767 259.996C231.683 257.707 232.141 255.419 232.141 253.13V250.841H237.635V253.13C237.635 256.334 237.177 259.538 235.804 262.285ZM249.998 252.214H220.694V247.179H249.998V252.214ZM235.804 291.122H229.394V276.932H235.804V291.122ZM266.023 292.953H229.394V287.46H266.023V292.953ZM239.009 249.01H232.141V240.771H239.009V249.01ZM240.382 259.08C241.298 260.911 242.672 262.742 244.961 264.573C246.793 265.947 249.082 267.32 252.287 268.235L249.082 273.27C245.877 272.355 243.13 270.982 240.84 268.693C238.551 266.862 236.719 264.116 235.804 261.369C234.43 258.623 233.972 255.876 233.972 252.672V250.383H239.467V252.672C239.009 254.961 239.467 257.249 240.382 259.08ZM261.445 261.827H248.624V256.334H261.445V261.827ZM264.65 280.136H258.239V240.313H264.65V280.136Z" fill="#9494E0"/>
<path d="M310.895 342.847H32.051C14.194 342.847 0 328.199 0 310.805V32.0417C0 14.1898 14.6519 0 32.051 0H310.895C328.752 0 342.946 14.6476 342.946 32.0417V310.805C342.946 328.199 328.752 342.847 310.895 342.847ZM32.051 4.57739C16.9412 4.57739 4.57871 16.9363 4.57871 32.0417V310.805C4.57871 325.91 16.9412 338.269 32.051 338.269H310.895C326.004 338.269 338.367 325.91 338.367 310.805V32.0417C338.367 16.9363 326.004 4.57739 310.895 4.57739H32.051Z" fill="#9494E0"/>
</svg>
