<svg width="0" height="0" viewBox="0 0 216 215" fill="none" xmlns="http://www.w3.org/2000/svg">
<path d="M108.044 214.771C48.9787 214.771 0.902344 166.709 0.902344 107.66C0.902344 48.6119 48.9787 0.549316 108.044 0.549316C167.109 0.549316 215.186 48.6119 215.186 107.66C215.186 166.709 167.567 214.771 108.044 214.771ZM108.044 9.7041C54.0153 9.7041 10.0598 53.6471 10.0598 107.66C10.0598 161.674 54.0153 205.616 108.044 205.616C162.073 205.616 206.029 161.674 206.029 107.66C206.029 53.6471 162.531 9.7041 108.044 9.7041Z" fill="#34314C"/>
<path d="M138.263 160.758H103.007C84.2346 160.758 68.667 146.11 68.667 127.801V93.4703C68.667 86.1465 70.0406 79.2804 73.2457 72.8721C75.0772 69.2102 76.4506 66.006 77.3664 63.7173L78.7402 60.5131C82.4032 51.3583 85.6082 44.0345 92.9341 41.7458C94.3077 41.2881 96.1391 41.2881 97.9706 41.2881C99.8021 41.2881 104.381 41.7458 108.044 44.4922C112.165 47.6964 113.538 52.7315 113.081 56.3935V72.8721C113.081 73.3298 113.081 73.3298 113.081 73.7876C113.081 74.703 113.081 75.1608 113.081 75.1608C113.081 75.1608 113.996 75.6185 116.285 75.6185H141.926C143.758 75.6185 145.589 76.0762 147.421 76.9917C150.626 78.3649 153.373 80.1959 156.12 82.9424C157.494 84.3156 160.699 87.062 162.988 91.6394C164.362 94.3858 164.82 96.6745 165.736 99.8787C166.652 103.541 167.109 107.203 167.109 110.864C167.109 114.069 168.025 120.935 166.651 129.632C165.736 136.498 165.278 141.075 162.531 146.11C160.241 150.688 157.036 153.434 155.663 154.807C152 158.012 147.879 160.3 142.842 161.216H142.384L139.179 161.674C138.721 160.758 138.721 160.758 138.263 160.758ZM78.2822 116.815V128.259C78.2822 141.075 89.729 152.061 103.465 152.061L141.011 151.603C144.216 150.688 146.963 149.315 149.71 147.484C150.626 146.568 152.458 144.737 154.289 141.533C156.12 137.871 156.578 135.125 157.494 128.259C158.41 120.019 157.952 114.069 157.952 110.864C157.494 107.203 157.494 103.998 156.578 100.794C156.12 97.59 155.662 96.2168 154.747 94.3858C153.373 91.1817 151.084 89.3507 150.168 88.4352C148.337 86.6043 146.047 85.231 143.758 84.3155C143.3 84.3155 142.842 83.8578 142.384 83.8578H117.201C113.08 84.3156 109.417 83.4001 107.128 80.6537C104.839 78.365 104.381 75.1608 104.381 73.3298V72.8721V55.9357C104.381 55.478 104.381 53.1893 102.549 51.8161C101.176 50.4429 98.8865 50.4429 98.4286 50.4429H97.9706C97.0549 50.4429 96.5971 50.4429 96.1393 50.4429C92.9342 51.3583 91.1027 55.478 87.8976 63.7173L86.5238 66.9215C85.6081 69.6679 84.2346 72.8721 82.4031 76.534C80.1138 82.0269 78.7402 87.5197 78.7402 93.4703V116.815H78.2822Z" fill="#34314C"/>
<path d="M104.839 160.758H75.0772H74.6194C72.788 160.3 71.4145 160.3 69.583 159.385C69.1251 159.385 64.5464 157.554 60.4255 153.892C53.0996 147.026 51.2681 137.413 50.3523 131.921C49.4366 127.343 49.4365 123.681 49.4365 118.646C49.4365 112.695 49.8945 106.287 51.2681 99.8788C52.1839 94.3859 53.0995 92.0972 54.0152 90.2663C56.3046 84.7734 59.9675 81.5692 61.3411 80.196C63.1726 78.8228 66.3777 76.0763 71.4143 74.7031C72.7879 74.2454 74.6194 73.7877 75.993 73.7877C78.2824 73.3299 81.0298 75.1608 81.0298 77.4495C81.4876 79.7382 79.6559 82.4847 77.3666 82.4847C76.4508 82.4847 75.0774 82.9424 74.1617 83.4002C70.4987 84.7734 68.2094 86.6044 67.2936 87.0621C66.3779 87.5198 64.0884 89.8085 62.2569 93.9282C61.799 94.8437 61.3413 96.2169 60.4255 101.252C59.5098 106.745 59.0517 112.695 59.0517 118.188C59.0517 123.223 59.0518 125.97 59.9675 130.09C60.8833 134.667 62.257 142.449 67.2936 147.026C70.0408 149.315 73.2459 150.688 73.2459 150.688C74.1616 151.146 75.0773 151.146 75.993 151.603H105.297C108.044 151.603 109.876 153.434 109.876 156.181C109.876 158.927 107.586 160.758 104.839 160.758Z" fill="#34314C"/>
</svg>
